<?xml version="1.0" encoding="utf-8"?>
<!-- Generator: Adobe Illustrator 27.5.0, SVG Export Plug-In . SVG Version: 6.00 Build 0)  -->
<svg version="1.1" xmlns="http://www.w3.org/2000/svg" xmlns:xlink="http://www.w3.org/1999/xlink" x="0px" y="0px"
	 viewBox="0 0 1122 1122" style="enable-background:new 0 0 1122 1122;" xml:space="preserve">
<g id="background">
	<rect x="0" style="fill:#FFFFFF;" width="1122" height="1122"/>
</g>
<g id="object">
	<path id="XMLID_3095_" style="fill:#E6EAEB;" d="M182.019,208.526c-38.921,39.545-70.292,88.539-90.957,136.697
		c-35.505,82.743-41.146,175.238-32.607,263.943c4.371,45.409,12.585,90.415,23.375,134.72
		c8.148,33.459,12.148,91.769,47.781,104.568c156.328,56.152,352.242,104.767,519.007,79.341
		c83.542-12.737,178.123,1.693,258.634-25.826c54.198-18.526,95.657-64.745,119.541-116.807
		c44.955-97.996,52.057-211.274,41.766-317.296c-4.301-44.308-6.663-106.19-30.746-143.985
		c-25.49-40.003-76.879-66.376-116.123-90.423c-126.816-77.706-283.533-99.584-429.732-103.409
		c-76.711-2.007-174.069-14.577-242.838,25.485C224.976,169.6,202.457,187.761,182.019,208.526z"/>
	<path id="XMLID_2599_" style="fill:#6BAF58;" d="M685.229,220.841c-15.776,2.047-31.607,3.189-47.436,3.427
		c-12.912-0.771-25.837-1.168-38.774-1.254c-12.625-1.01-25.219-2.604-37.752-4.803c-3.873-0.68-7.631,3.155-5.351,6.96
		c2.781,4.641,5.717,9.165,8.778,13.597c0.249,0.854,0.585,1.715,1.108,2.58c2.241,3.702,4.882,6.976,7.961,9.757
		c3.748,4.779,7.665,9.429,11.754,13.944C502.765,314.238,419,362.086,333.692,406.705c-2.137,1.118-2.837,3.678-2.391,5.876
		c0.399,1.968,0.799,3.937,1.198,5.905c-0.027,2.036,0.372,4.129,1.254,6.181c0.969,4.779,1.939,9.558,2.908,14.337
		c-0.355,6.251,0.358,12.065,7.07,15.372c5.096,2.511,11.03,1.201,16.235-0.155c9.406-2.45,18.694-5.603,27.897-8.715
		c34.548-11.682,68.098-26.311,100.409-43.203c32.573-17.029,63.916-36.378,94.019-57.456c7.525-5.269,14.974-10.645,22.349-16.121
		c3.224-2.394,6.402-4.85,9.627-7.241c5.49-4.071,6.06-2.488,9.369,2.913c3.161,5.161,6.384,15.325,12.303,17.727
		c5.49,2.227,11.654-1.53,15.344-5.25c6.272-6.324,10.17-15.673,14.021-23.566c4.298-8.81,8.114-17.872,11.416-27.102
		c7.176-20.061,10.428-39.975,12.841-61.035C689.803,223.044,687.367,220.563,685.229,220.841z"/>
	<path id="XMLID_2597_" style="fill:#6BAF58;" d="M434.279,597.384c0.094-8.518,0.305-17.043,0.033-25.56
		c-0.238-7.444,0.306-16.681-2.868-23.815c-3.466-7.791-13.012-7.635-21.956-7.601c-11.868,0.045-23.736,0.09-35.604,0.135
		c-0.999,0.004-1.901,0.122-2.724,0.318c-4.942-0.56-10.749,1.749-11.321,6.793c-0.47,4.144-0.645,8.281-0.592,12.409
		c-1.858,5.889-1.162,12.266-0.526,18.939c1.224,12.855,2.475,25.708,3.713,38.563c1.233,12.813,2.985,25.706,2.771,38.563
		c-0.108,6.527,0.873,12.794,1.858,19.281c0.573,3.777,1.805,7.907,1.369,11.717c-0.404,3.528-1.329,6.649-1.28,10.318
		c0.04,3.01,2.128,6.395,5.745,7.783c15.675,6.018,33.305,8.367,50.693,7.355c5.736-0.334,10.789-3.548,10.725-8.335
		C433.837,668.609,433.885,633.027,434.279,597.384z"/>
	<path id="XMLID_2595_" style="fill:#6BAF58;" d="M554.426,483.543c-0.331-4.452-3.608-7.464-8.427-7.799
		c-16.98-1.181-33.888-0.797-50.786,1.15c-4.119,0.474-6.601,3.215-7.395,6.224c-2.046,3.152-1.832,7.857,1.34,10.249
		c-1.121,17.271-1.227,34.794-0.488,52.041c0.378,8.817-0.401,17.911-0.623,26.794c-0.224,8.961,0.735,17.869,0.118,26.794
		c-1.2,17.33,0.217,34.731-0.668,52.099c-0.456,8.954,0.446,17.83-0.349,26.794c-0.403,4.547,0.275,8.876,0.155,13.397
		c-0.102,3.844-0.393,6.498,0.43,9.573c-1.988,4.584-0.393,10.797,5.824,11.931c15.31,2.79,33.127,1.878,48.73,0.932
		c4.841-0.293,7.931-3.332,8.373-7.749c0.936-9.357,1.692-18.74,2.513-28.107c0.753-8.593,2.729-16.58,3.181-25.184
		c0.987-18.777,1.574-37.573,1.761-56.371C558.487,558.69,557.216,521.074,554.426,483.543z"/>
	<path id="XMLID_2594_" style="fill:#6BAF58;" d="M693.971,405.737c0.17-4.85-3.949-7.719-8.25-8.25
		c-23.963-2.959-48.006-3.106-71.997-0.486c-5.23-2.526-13.4-0.08-11.9,8.88c0.637,3.807-0.511,8.763-0.483,12.697
		c0.028,3.969,0.093,7.914,0.348,11.878c0.386,5.998,1.065,11.978,1.947,17.924c4.851,84.62,9.702,169.24,14.552,253.86
		c0.306,5.344,4.206,9.579,9.716,9.716c20.003,0.496,39.823-1.19,59.458-5.031c4.141-0.81,7.249-5.398,7.202-9.46
		C693.443,600.281,690.567,502.898,693.971,405.737z"/>
	<g id="XMLID_2575_">
		<defs>
			<filter id="Adobe_OpacityMaskFilter" filterUnits="userSpaceOnUse" x="695.674" y="1018.084" width="222.502" height="14.904">
				<feFlood  style="flood-color:white;flood-opacity:1" result="back"/>
				<feBlend  in="SourceGraphic" in2="back" mode="normal"/>
			</filter>
		</defs>
		
			<mask maskUnits="userSpaceOnUse" x="695.674" y="1018.084" width="222.502" height="14.904" id="XMLID_00000119088136270282413060000015043967063837431456_">
			<g style="filter:url(#Adobe_OpacityMaskFilter);">
				<defs>
					
						<filter id="Adobe_OpacityMaskFilter_00000121979258609152622960000015761785707996451514_" filterUnits="userSpaceOnUse" x="695.674" y="1018.084" width="222.502" height="14.904">
						<feFlood  style="flood-color:white;flood-opacity:1" result="back"/>
						<feBlend  in="SourceGraphic" in2="back" mode="normal"/>
					</filter>
				</defs>
				
					<mask maskUnits="userSpaceOnUse" x="695.674" y="1018.084" width="222.502" height="14.904" id="XMLID_00000119088136270282413060000015043967063837431456_">
					<g style="filter:url(#Adobe_OpacityMaskFilter_00000121979258609152622960000015761785707996451514_);">
					</g>
				</mask>
				
					<linearGradient id="XMLID_00000106108776922637009370000001330959168282040474_" gradientUnits="userSpaceOnUse" x1="1135.9553" y1="1034.6665" x2="1251.9187" y2="1034.6665" gradientTransform="matrix(1.919 -0.0546 0.0284 0.9996 -1513.6302 56.6459)">
					<stop  offset="0" style="stop-color:#FFFFFF"/>
					<stop  offset="1" style="stop-color:#000000"/>
				</linearGradient>
				
					<path id="XMLID_3070_" style="mask:url(#XMLID_00000119088136270282413060000015043967063837431456_);fill:url(#XMLID_00000106108776922637009370000001330959168282040474_);" d="
					M914.135,1025.234c4.303-1.492,5.549-3.309,1.875-5.519c-2.954-1.776-11.518-0.832-15.427-0.923
					c-18.301-0.428-36.617-0.76-54.979-0.701c-36.93,0.119-73.942,1.536-110.704,4.242c-5.457,0.402-44.978,1.961-38.513,8.719
					c3.287,3.436,18.997,1.256,24.797,1.234c12.679-0.05,25.357-0.1,38.035-0.15c25.359-0.1,50.717-0.2,76.079-0.3
					C840.937,1031.813,898.282,1030.731,914.135,1025.234z"/>
			</g>
		</mask>
		
			<linearGradient id="XMLID_00000019656957592794276550000008586409029996385423_" gradientUnits="userSpaceOnUse" x1="1135.9553" y1="1034.6665" x2="1251.9187" y2="1034.6665" gradientTransform="matrix(1.919 -0.0546 0.0284 0.9996 -1513.6302 56.6459)">
			<stop  offset="0" style="stop-color:#000000"/>
			<stop  offset="1" style="stop-color:#000000"/>
		</linearGradient>
		<path id="XMLID_2593_" style="opacity:0.22;fill:url(#XMLID_00000019656957592794276550000008586409029996385423_);" d="
			M914.135,1025.234c4.303-1.492,5.549-3.309,1.875-5.519c-2.954-1.776-11.518-0.832-15.427-0.923
			c-18.301-0.428-36.617-0.76-54.979-0.701c-36.93,0.119-73.942,1.536-110.704,4.242c-5.457,0.402-44.978,1.961-38.513,8.719
			c3.287,3.436,18.997,1.256,24.797,1.234c12.679-0.05,25.357-0.1,38.035-0.15c25.359-0.1,50.717-0.2,76.079-0.3
			C840.937,1031.813,898.282,1030.731,914.135,1025.234z"/>
		<path id="XMLID_2592_" style="fill:#333333;" d="M692.574,593.52c12.282,8.258,18.234,42.112,31.755,49.59
			c-3.775-21.074-0.634-37.64-1.149-49.609c-0.592-13.754,11.513-26.58,20.752-35.359c6.025-5.725,13.262-0.25,13.912,6.256
			c1.996,1.759-0.211,43.961-0.922,47.468c-7.244,35.743,2.236,35.781-13.385,69.573c-2.129,4.606-7.801,8.829-13.148,6.231
			c-32.793-15.935-26.198-34.627-41.901-74.031C687.101,610.159,680.113,585.142,692.574,593.52z"/>
		<path id="XMLID_2591_" style="fill:#E8DBCE;" d="M816.126,487.057c-2.44-7.353-7.716-11.955-14.048-14.163
			c0.304-3.436-2.259-7.554-6.271-7.94c-17.398-1.673-30.896,12.928-39.475,26.304c-8.968,13.983-17.945,33.27-3.193,46.632
			C780.904,563.039,825.933,516.618,816.126,487.057z"/>
		<path id="XMLID_2590_" style="fill:#3D322B;" d="M741.183,1009.732c-6.429-0.518-12.921-0.244-19.283,0.813
			c-4.905,3.652-10.279,6.672-15.948,8.964c-1.646,0.666-3.379,1.311-4.594,2.606c-1.215,1.295-1.707,3.472-0.572,4.837
			c0.992,1.193,2.747,1.322,4.299,1.338c11.882,0.125,23.776-0.886,35.466-3.015c0.701-0.128,1.446-0.282,1.952-0.784
			c0.405-0.401,0.594-0.966,0.742-1.516C744.439,1018.532,743.671,1013.6,741.183,1009.732z"/>
		<path id="XMLID_2589_" style="fill:#3D322B;" d="M808.917,1011.456c-6.251-0.835-12.604-0.9-18.87-0.194
			c-4.976,3.314-10.378,5.988-16.03,7.936c-1.641,0.566-3.367,1.107-4.62,2.309c-1.253,1.202-1.844,3.303-0.806,4.694
			c0.908,1.216,2.615,1.431,4.129,1.527c11.595,0.731,23.26,0.352,34.784-1.128c0.691-0.089,1.426-0.201,1.946-0.665
			c0.416-0.371,0.63-0.913,0.802-1.443C811.646,1020.216,811.149,1015.361,808.917,1011.456z"/>
		<path id="XMLID_2588_" style="fill:#333333;" d="M801.676,869.425c-1.768-42.784,1.945-86.419,1.621-129.467
			c1.163-14.922-0.722-30.121-5.513-44.15c-0.297-0.871-0.62-1.762-1.212-2.429c-1.838-2.07-4.98-0.969-7.417,0.13
			c-23.377,10.547-50.987,8.064-72.3-6.827c-4.21,7.019-5.418,15.63-6.457,23.95c-1.679,13.45-3.519,26.873-3.97,40.382
			c-0.001,0.026-0.004,0.051-0.005,0.077l0.002,0c-0.096,2.901-0.149,5.805-0.099,8.715c0.293,16.839,3.263,33.43,5.584,50.027
			c1.514,10.827,2.845,21.728,2.972,32.697c0.104,8.977-1.047,17.183,0.788,25.973c4.519,21.645,4.53,45.226,6.441,67.341
			c2.046,23.682,4.067,47.368,5.739,71.086c0.067,0.945,0.133,1.889,0.198,2.834c1.091,0.319,17.758,4.518,17.758-0.205
			c1.336-46.036,2.673-92.072,4.009-138.108c0.562-19.372,1.161-39.027,5.648-57.484c1.849,0.203,3.698,0.405,5.547,0.608
			c10.162,60.92,20.325,121.839,30.487,182.759c0.895,5.364-1.328,11.732,1.902,15.188c3.23,3.457,12.57,1.908,13.525-3.439
			C803.942,962.532,803.6,915.999,801.676,869.425z"/>
		<path id="XMLID_2587_" style="fill:#333333;" d="M834.451,754.434c-1.496,0.476-3.025,0.624-4.501,0.528
			c-0.227,0.066-0.423,0.151-0.661,0.211c-1.414,0.354-2.856,0.674-4.283,1.013c-26.812,13.211-49.571,0.092-74.275,2.409
			c-13.302,1.248-26.829,3.119-39.767,7.001c-0.066,0.02-0.133,0.04-0.199,0.06c-0.195-0.031-0.392-0.04-0.587-0.08
			c-1.12-0.227-2.056-0.546-2.835-0.948c-4.87-2.511-3.587-8.248-2.583-14.991c1.74-11.682,1.108-23.565,1.416-35.353
			c0.312-11.902,3.974-22.318,5.087-33.817c0.854-8.816,1.872-17.352,3.849-25.955c7.054-30.711,8.233-81.881,41.539-101.706
			c9.62,1.663,19.787,1.938,30.042,1.969c0.232,0.408,11.343,5.89,11.501,6.365c15.747,47.325,11.19,90.63,22.985,138.486
			c1.494,6.064,3.635,12.39,5.343,18.725c3.528,6.637,8.369,13.828,9.588,21.088c0.825,0.952,1.427,2.021,1.831,3.14
			C842.004,746.219,841.346,752.239,834.451,754.434z"/>
		<path id="XMLID_2586_" style="fill:#F0F0F0;" d="M784.87,715.833c-17.604,0.739-43.752,1.204-61.353,1.994
			c-2.291,0.103-6.415-0.095-8.701,0c-0.034-0.323,3.038-18.359,3.038-18.706c0.108-50.228,12.222-99.492,35.126-144.17
			c3.566-6.957,3.23-6.503,18.911-6.978c16.209,1.9,8.654,5.962,8.102,12.824C776.349,606.093,782.86,670.442,784.87,715.833z"/>
		<path id="XMLID_2585_" style="fill:#1F375A;" d="M769.795,559.976c-0.538-0.736-1.15-1.353-1.814-1.865
			c-0.03-0.5-0.151-1.007-0.436-1.494c-1.227-2.097-4.66-2.328-5.879-0.066c-0.02,0.016-0.042,0.031-0.061,0.048
			c-0.034,0.006-0.067,0.005-0.102,0.011c-1.571,0.282-2.499,2.078-2.304,3.529c0.102,0.762,0.556,1.561,1.193,2.113
			c0.024,0.073,0.065,0.131,0.092,0.203c-8.684,14.824-13.923,30.088-17.904,46.964c-4.828,20.467-9.466,40.981-14.205,61.468
			c-0.938,4.052,4.451,6.386,6.704,2.826c9.077-14.342,10.675-31.738,14.937-47.818c4.852-18.306,10.416-36.421,15.224-54.731
			c0.358-1.364-0.028-2.458-0.766-3.189c0.654-0.95,1.335-1.879,2.045-2.788c0.433-0.064,0.861-0.153,1.276-0.295
			C769.641,564.259,771.155,561.836,769.795,559.976z"/>
		<path id="XMLID_2584_" style="fill:#D7C68E;" d="M825.82,498.184c0.761-4.715,0.182-9.42-2.711-13.536
			c-2.35-3.343-5.468-4.842-8.831-6.157c-1.77-1.545-3.622-3.026-5.506-4.511c-1.023-0.806-2.039-1.723-3.065-2.675
			c-2.382-4.676-4.54-9.609-7.319-12.515c-3.902-4.081-9.217-5.398-13.733-3.995c-0.555-1.098-1.217-2.169-2.074-3.193
			c-1.393-1.666-3.998-1.649-5.764-0.744c-0.998,0.512-1.997,1.024-2.996,1.536c-2.738,1.403-4.243,4.568-4.316,7.525
			c-0.525,21.254,16.253,33.028,34.011,39.858c-0.741,1.325-1.664,2.561-2.541,3.605c-4.572,5.442-2.578,14.863,3.287,17.51
			c0.261,4.003-2.733,7.614-6.338,9.229c-3.442,1.542-0.957,6.838,2.507,5.946c9.985-2.572,17.123-10.578,19.149-20.443
			C824.147,511.06,826.421,504.742,825.82,498.184z"/>
		<path id="XMLID_2583_" style="fill:#E8DBCE;" d="M690.394,582.02c-0.433-2.788-0.206-5.696,0.68-8.358
			c-0.87-1.866-2.426-3.407-4.415-4.264c-3.562-1.534-7.429-0.076-8.795,3.627c-0.829,2.247-0.971,4.671-0.89,7.121
			c1.336,1.613,2.337,3.478,2.835,5.511c1.343,1.173,2.648,2.657,3.926,3.858c0.004,0.003,0.006,0.005,0.01,0.008
			c0.188,0.135,0.371,0.276,0.56,0.409c0.57,0.401,1.154,0.779,1.737,1.161c0.173-0.207,0.267-0.463,0.226-0.727
			c1.857-0.82,2.881-3.38,1.531-5.09C688.811,584.292,689.695,583.211,690.394,582.02z"/>
		<path id="XMLID_2582_" style="fill:#333333;" d="M747.449,602.445c12.282,8.258,18.234,42.112,31.755,49.59
			c-3.775-21.074-0.634-37.64-1.149-49.609c-0.592-13.754,5.724-30.977,14.962-39.756c6.025-5.725,19.052,4.147,19.701,10.653
			c1.996,1.759-0.211,43.961-0.922,47.468c-7.244,35.743,2.236,35.781-13.385,69.573c-2.129,4.606-7.801,8.829-13.148,6.231
			c-32.793-15.935-26.198-34.627-41.901-74.031C741.976,619.084,734.988,594.068,747.449,602.445z"/>
		<path id="XMLID_2576_" style="fill:#E8DBCE;" d="M746.539,593.169c-0.433-2.788-0.206-5.696,0.68-8.358
			c-0.87-1.866-2.426-3.407-4.415-4.264c-3.562-1.534-7.429-0.076-8.795,3.627c-0.829,2.247-0.971,4.671-0.89,7.121
			c1.336,1.613,2.337,3.478,2.835,5.511c1.343,1.173,2.648,2.657,3.926,3.858c0.004,0.003,0.006,0.005,0.01,0.008
			c0.188,0.135,0.371,0.276,0.56,0.409c0.57,0.401,1.154,0.779,1.737,1.161c0.173-0.207,0.267-0.463,0.226-0.727
			c1.857-0.82,2.881-3.38,1.531-5.09C744.956,595.441,745.84,594.36,746.539,593.169z"/>
	</g>
</g>
</svg>
