<?xml version="1.0" encoding="utf-8"?>
<!-- Generator: Adobe Illustrator 27.5.0, SVG Export Plug-In . SVG Version: 6.00 Build 0)  -->
<svg version="1.1" xmlns="http://www.w3.org/2000/svg" xmlns:xlink="http://www.w3.org/1999/xlink" x="0px" y="0px"
	 viewBox="0 0 3710 3710" style="enable-background:new 0 0 3710 3710;" xml:space="preserve">
<g id="Background">
	<g>
		<g>
			<rect style="fill:#FFFFFF;" width="3710" height="3710"/>
		</g>
	</g>
</g>
<g id="Illustration">
	<g>
		<linearGradient id="SVGID_1_" gradientUnits="userSpaceOnUse" x1="3451.5525" y1="3620.0837" x2="1517.5558" y2="1561.3136">
			<stop  offset="0" style="stop-color:#DAE3FE"/>
			<stop  offset="1" style="stop-color:#E9EFFD"/>
		</linearGradient>
		<path style="fill:url(#SVGID_1_);" d="M2870.872,2794.114c-71.395,73.592-135.277,116.852-184.188,149.51
			c-477.012,318.506-1022.289,226.705-1190.875,195.327c-271.993-50.624-501.593-86.336-698.86-264.559
			c-448.25-404.977-426.449-1249.788-83.93-1773.112c40.612-62.051,382.612-569.001,929.069-640.434
			c13.366-1.747,23.338-2.742,32.073-3.667c84.536-8.95,608.386-56.189,1035.535,301.676
			c61.144,51.226,159.543,143.626,250.79,284.551C3294.128,1558.688,3295.185,2356.748,2870.872,2794.114z"/>
		<g>
			
				<ellipse transform="matrix(0.0439 -0.999 0.999 0.0439 20.737 3560.6523)" style="fill:#91B3FA;" cx="1870.563" cy="1769.493" rx="1164.832" ry="1257.322"/>
			<ellipse style="opacity:0.26;fill:#FFFFFF;" cx="1802.514" cy="1685.452" rx="986.608" ry="932.03"/>
			<g style="opacity:0.68;">
				<path style="fill:#FFFFFF;" d="M2193.941,1775.119c-0.11,102.811-3.88,205.636-11.881,308.169
					c-8.221,102.506-20.824,204.713-39.064,305.997c-18.618,101.146-42.333,201.746-78.182,298.599
					c-18.184,48.239-39.275,95.794-67.903,139.312c-14.429,21.6-30.795,42.316-51.044,59.394
					c-10.123,8.483-21.252,16.019-33.516,21.545c-12.238,5.49-25.64,8.969-39.239,9.198c-13.581,0.388-27.187-2.243-39.671-7.262
					c-12.534-4.966-23.937-12.165-34.307-20.37c-20.737-16.551-37.465-37.044-52.152-58.476
					c-29.134-43.211-50.51-90.671-68.881-138.835c-18.256-48.283-33.13-97.698-46.008-147.551
					c-12.854-49.869-23.648-100.223-32.952-150.825c-18.568-101.225-31.266-203.418-39.873-305.897
					c-8.546-102.494-12.881-205.32-13.52-308.167c-0.3-51.414,1.275-102.818,3.155-154.188c2.005-51.37,4.915-102.704,8.776-153.966
					c7.764-102.516,19.281-204.798,36.326-306.236c8.552-50.707,18.51-101.201,30.473-151.248
					c11.993-50.032,25.918-99.666,43.175-148.23c17.436-48.419,37.75-96.247,66.022-139.756
					c14.225-21.591,30.576-42.211,50.961-58.734c10.191-8.189,21.426-15.318,33.745-20.145c12.268-4.893,25.589-7.354,38.827-6.84
					c13.246,0.382,26.309,3.648,38.351,8.936c12.06,5.308,23.133,12.528,33.294,20.708c20.323,16.466,37.127,36.581,52.036,57.695
					c29.64,42.525,51.986,89.398,71.353,137.087c38.244,95.774,64.169,195.819,84.586,296.584
					c20.068,100.912,34.097,202.951,43.376,305.374C2189.24,1569.443,2193.639,1672.279,2193.941,1775.119z M2174.386,1775.119
					c0.25-102.308-3.578-204.647-12.018-306.605c-8.276-101.956-20.817-203.631-39.603-304.18
					c-18.882-100.438-43.267-200.222-79.826-295.631c-18.51-47.499-39.991-94.161-68.497-136.296
					c-14.328-20.92-30.493-40.781-49.868-56.926c-19.191-16.017-42.506-28.319-67.55-29.092c-12.419-0.384-24.81,2.141-36.295,6.886
					c-11.526,4.702-22.115,11.614-31.776,19.603c-19.328,16.11-35.01,36.394-48.636,57.737
					c-27.108,43.013-46.571,90.586-63.154,138.778c-16.418,48.345-29.553,97.81-40.767,147.677
					c-11.185,49.887-20.382,100.227-28.178,150.779c-30.868,202.367-40.782,407.503-40.025,612.073
					c-0.391,102.302,2.919,204.639,10.408,306.674c7.55,102.016,19.176,203.781,36.631,304.541
					c8.746,50.368,18.973,100.479,31.233,150.069c12.281,49.572,26.54,98.675,44.097,146.533
					c17.651,47.727,38.304,94.675,66.186,136.903c14.029,20.936,29.99,40.773,49.274,56.461
					c19.078,15.613,42.452,26.706,66.806,25.875c24.335-0.662,47.149-12.732,65.829-28.892
					c18.873-16.234,34.494-36.324,48.275-57.443c27.394-42.565,47.747-89.62,65.197-137.429
					c34.436-96.031,56.987-196.169,74.448-296.833c17.362-100.774,28.837-202.549,36.485-304.563
					C2170.857,1979.803,2174.445,1877.454,2174.386,1775.119z"/>
				<path style="fill:#FFFFFF;" d="M2712.531,1775.119c-0.772,132.515-17.865,265.08-53.399,392.86
					c-36.214,127.472-90.817,250.048-164.818,360.077c-73.893,109.795-167.998,207.183-280.438,277.817
					c-56.18,35.158-116.86,63.297-180.376,82.379c-63.479,19.127-129.746,29.091-196.059,29.127
					c-66.313,0.041-132.603-9.846-196.126-28.905c-63.56-19.013-124.303-47.096-180.557-82.208
					c-112.596-70.532-206.916-167.86-281.021-277.657c-74.192-110.048-128.942-232.692-165.372-360.245
					c-17.902-63.9-31.25-129.062-40.064-194.817c-8.76-65.765-13.168-132.086-13.485-198.429
					c0.37-66.343,4.831-132.656,13.643-198.408c8.868-65.74,22.281-130.877,40.237-194.746
					c36.546-127.486,91.405-250.026,165.66-359.925c74.149-109.656,168.444-206.854,280.98-277.155
					c56.233-34.995,116.957-62.807,180.375-81.813c63.377-19.093,129.529-29.036,195.731-29.072
					c66.202,0.106,132.332,10.121,195.668,29.277c63.377,19.07,124.035,46.955,180.191,81.999
					c112.378,70.406,206.46,167.661,280.396,277.318c74.062,109.881,128.778,232.349,165.103,359.758
					C2694.436,1510.067,2711.644,1642.603,2712.531,1775.119z M2690.114,1775.119c-0.103-130.585-16.283-261.324-50.653-387.403
					c-34.5-125.899-86.444-247.51-158.114-356.908c-35.814-54.643-76.505-106.159-122.099-153
					c-45.616-46.763-95.997-89.116-151.154-124.287c-55.228-34.964-114.864-63.146-177.425-82.182
					c-62.531-19.04-127.816-29.056-193.227-29.288c-65.411,0.304-130.675,10.391-193.165,29.494
					c-62.52,19.101-122.089,47.355-177.24,82.366c-55.08,35.222-105.366,77.62-150.883,124.408
					c-45.494,46.869-86.081,98.399-121.786,153.042c-71.478,109.379-123.278,230.92-157.558,356.739
					c-17.109,62.976-29.445,127.187-37.833,191.862c-8.415,64.683-12.554,129.91-12.672,195.156
					c0.172,65.245,4.363,130.466,12.83,195.135c8.442,64.661,20.842,128.848,38.005,191.791
					c34.396,125.754,86.306,247.189,157.846,356.422c35.724,54.577,76.319,106.034,121.806,152.822
					c45.517,46.696,95.756,89.045,150.823,124.124c55.13,34.894,114.68,62.881,177.059,81.972
					c62.344,19.137,127.47,29.282,192.77,29.66c65.299-0.301,130.449-10.368,192.837-29.437
					c62.422-19.025,122.036-46.954,177.24-81.802c55.141-35.034,105.477-77.334,151.093-124.005
					c45.587-46.762,86.288-98.205,122.12-152.781c71.731-109.252,123.787-230.756,158.399-356.591
					C2673.602,2036.412,2689.896,1905.703,2690.114,1775.119z"/>
				<path style="fill:#FFFFFF;" d="M819.19,1323.25c87.351-1.264,174.701-1.805,262.052-2.722l262.052-1.543
					c87.351-0.657,174.701-0.586,262.052-0.789l262.052-0.456l524.104,1.37l262.052,1.685c87.351,1,174.701,1.585,262.052,2.939
					c0.546,0.009,0.983,0.458,0.974,1.005c-0.008,0.535-0.442,0.965-0.974,0.973c-87.351,1.354-174.701,1.939-262.052,2.939
					l-262.052,1.685l-524.104,1.37l-262.052-0.455c-87.351-0.203-174.701-0.133-262.052-0.79l-262.052-1.542
					c-87.351-0.917-174.701-1.458-262.052-2.722c-0.814-0.012-1.464-0.681-1.452-1.495
					C817.749,1323.904,818.397,1323.263,819.19,1323.25z"/>
				<path style="fill:#FFFFFF;" d="M1123.201,884.335c62.016-1.264,124.033-1.805,186.049-2.722l186.049-1.542
					c62.017-0.657,124.033-0.587,186.05-0.79l186.05-0.455l186.049,0.518c62.016,0.313,124.033,0.141,186.049,0.851l186.049,1.685
					c62.017,1,124.033,1.586,186.05,2.939c0.546,0.013,0.979,0.466,0.968,1.012c-0.011,0.531-0.442,0.955-0.968,0.968
					c-62.017,1.355-124.033,1.938-186.05,2.939l-186.049,1.685c-62.016,0.71-124.033,0.539-186.049,0.851l-186.049,0.519
					l-186.05-0.456c-62.016-0.203-124.033-0.132-186.05-0.789l-186.049-1.543c-62.016-0.917-124.033-1.458-186.049-2.722
					c-0.814-0.017-1.46-0.69-1.443-1.504C1121.774,884.986,1122.416,884.353,1123.201,884.335z"/>
				<path style="fill:#FFFFFF;" d="M728.124,1762.165l284.818-2.722l284.819-1.543c94.94-0.657,189.879-0.586,284.819-0.79
					l284.819-0.455l569.637,1.37l284.819,1.685c94.94,1,189.879,1.586,284.819,2.939c0.546,0.008,0.983,0.458,0.975,1.004
					c-0.007,0.536-0.442,0.967-0.975,0.975c-94.94,1.355-189.879,1.938-284.819,2.939l-284.819,1.685l-569.637,1.37l-284.819-0.456
					c-94.94-0.203-189.879-0.132-284.819-0.789l-284.819-1.543l-284.818-2.722c-0.814-0.007-1.467-0.673-1.459-1.488
					C726.672,1762.821,727.324,1762.174,728.124,1762.165z"/>
				<path style="fill:#FFFFFF;" d="M819.19,2201.08c87.351-1.264,174.701-1.805,262.052-2.722l262.052-1.543
					c87.351-0.657,174.701-0.586,262.052-0.79l262.052-0.456l524.104,1.37l262.052,1.685c87.351,1,174.701,1.584,262.052,2.939
					c0.546,0.009,0.983,0.458,0.974,1.005c-0.008,0.535-0.442,0.965-0.974,0.973c-87.351,1.354-174.701,1.939-262.052,2.939
					l-262.052,1.685l-524.104,1.37l-262.052-0.455c-87.351-0.203-174.701-0.133-262.052-0.79l-262.052-1.543
					c-87.351-0.917-174.701-1.458-262.052-2.722c-0.814-0.013-1.464-0.681-1.452-1.495
					C817.749,2201.734,818.397,2201.093,819.19,2201.08z"/>
				<path style="fill:#FFFFFF;" d="M2649.094,2646.634H1160.698c-2.853,0-5.166-2.311-5.166-5.167s2.313-5.167,5.166-5.167h1488.396
					c2.853,0,5.167,2.311,5.167,5.167S2651.947,2646.634,2649.094,2646.634z"/>
			</g>
		</g>
		<g>
			<path style="fill:#7D97F4;" d="M1659.8,1846.098c36.991,198.19,61.878,351.983,77.631,457.174
				c1.139,7.607,8.132,12.919,15.767,11.984l0,0c10.01-1.225,17.174-10.258,16.076-20.282
				c-28.6-261.084-89.333-753.57-166.946-1023.752C1424.18,651.064,1117.197,970.456,936.756,631.37
				c-7.197-13.526-27.51-10.629-30.563,4.385c-27.684,136.156-77.14,540.697,263.229,709.437
				C1581.859,1549.661,1585.045,1445.575,1659.8,1846.098z"/>
			<path style="opacity:0.47;fill:#FFFFFF;" d="M932.563,681.293c5.107,22.415,14.313,44.459,25.633,64.719
				c11.606,20.226,24.911,39.38,40.192,56.903c30.54,35.078,67.878,63.735,108.152,87.009c19.972,12.16,41.299,21.351,62.67,31.422
				l32.873,14.99c10.867,5.202,21.539,10.844,32.316,16.247c42.673,22.476,84.004,47.866,122.409,77.4
				c38.048,29.969,73.274,63.555,104.507,100.587l22.413,28.581c3.893,4.643,7.028,9.843,10.461,14.822l10.116,15.063l10.104,15.059
				l9.003,15.734c5.892,10.545,12.132,20.903,17.719,31.593l15.542,32.688c2.463,5.5,5.454,10.771,7.478,16.456l6.571,16.836
				c4.318,11.242,8.88,22.401,12.754,33.783l10.522,34.508l5.252,17.237l4.138,17.529l8.201,35.044
				c1.507,5.807,2.494,11.722,3.454,17.639l2.906,17.74l5.773,35.447c0.37,2.265-1.167,4.401-3.433,4.769
				c-2.198,0.358-4.274-1.079-4.733-3.233l-0.052-0.251l-7.359-34.859l-3.659-17.411c-1.149-5.818-2.323-11.628-4.013-17.316
				l-9.282-34.307l-4.665-17.129l-5.758-16.787l-11.496-33.539c-4.166-11.046-9.11-21.786-13.492-32.733l-6.764-16.345
				c-2.086-5.524-5.128-10.608-7.643-15.932l-15.818-31.592c-5.664-10.31-11.96-20.266-17.898-30.411l-9.06-15.126l-10.13-14.426
				l-10.12-14.422c-3.428-4.763-6.557-9.748-10.438-14.17l-22.288-27.248c-30.956-35.258-65.112-67.623-102.349-96.243
				c-37.623-28.109-77.653-52.98-119.431-74.733c-10.55-5.25-20.975-10.734-31.62-15.795l-32.239-14.599
				c-21.709-10.334-44.11-20.367-64.826-33.209c-41.784-24.966-80.266-56.472-110.662-94.889
				c-7.264-9.862-14.721-19.54-20.911-30.114c-3.279-5.154-6.531-10.315-9.244-15.807c-2.703-5.486-5.864-10.704-8.161-16.383
				c-5.042-11.113-9.528-22.457-13.091-34.112c-3.772-11.625-6.263-23.454-7.568-35.899c-0.202-1.941,1.206-3.68,3.147-3.883
				c1.799-0.189,3.425,1.008,3.814,2.73L932.563,681.293z"/>
		</g>
		<g>
			<g>
				<g style="opacity:0.3;">
					<path style="fill:#7D97F4;" d="M2877.8,906.228c-5.576-0.227-9.91-4.934-9.68-10.508c0.443-10.83,0.425-21.84-0.059-32.726
						c-0.245-5.508,3.97-10.18,9.448-10.528c0.065-0.004,0.13-0.008,0.197-0.013c5.573-0.247,10.291,4.072,10.539,9.646
						c0.508,11.458,0.53,23.049,0.061,34.45c-0.212,5.213-4.345,9.342-9.441,9.665
						C2878.514,906.238,2878.159,906.245,2877.8,906.228z M2862.075,810.172c-1.961-10.713-4.4-21.443-7.25-31.902
						c-1.466-5.379,1.706-10.934,7.089-12.402c5.407-1.454,10.936,1.71,12.403,7.093c2.999,11.003,5.567,22.298,7.633,33.57
						c1.004,5.487-2.631,10.752-8.118,11.756c-0.399,0.073-0.797,0.121-1.191,0.146
						C2867.602,818.753,2863.007,815.261,2862.075,810.172z M2837.321,728.105c-4.285-9.98-9.056-19.894-14.185-29.473
						c-2.633-4.917-0.78-11.041,4.137-13.674c4.916-2.625,11.037-0.78,13.674,4.138c5.401,10.087,10.426,20.53,14.937,31.038
						c2.201,5.126-0.172,11.065-5.296,13.269c-1.093,0.469-2.223,0.73-3.345,0.802
						C2843.1,734.467,2839.052,732.138,2837.321,728.105z M2794.833,653.635c-6.415-8.781-13.287-17.383-20.421-25.574
						c-3.664-4.208-3.224-10.589,0.981-14.253c4.21-3.66,10.588-3.218,14.253,0.981c7.512,8.625,14.745,17.683,21.5,26.921
						c3.29,4.504,2.308,10.825-2.196,14.116c-1.612,1.178-3.455,1.809-5.31,1.927
						C2800.309,657.965,2796.948,656.526,2794.833,653.635z M2736.814,590.487c-8.185-7.119-16.792-13.99-25.582-20.415
						c-4.503-3.296-5.483-9.615-2.191-14.118c3.294-4.507,9.616-5.485,14.117-2.189c9.246,6.759,18.302,13.989,26.915,21.48
						c4.209,3.659,4.654,10.04,0.991,14.25c-1.844,2.122-4.38,3.287-6.981,3.452C2741.523,593.11,2738.902,592.303,2736.814,590.487
						z M2666.269,541.75c-9.571-5.141-19.48-9.933-29.457-14.246c-5.12-2.214-7.479-8.161-5.265-13.279
						c2.213-5.122,8.156-7.481,13.281-5.267c10.499,4.537,20.931,9.584,31.003,14.994c4.914,2.642,6.758,8.764,4.118,13.68
						c-1.715,3.193-4.9,5.087-8.269,5.301C2669.862,543.048,2667.992,542.677,2666.269,541.75z M2291.183,537.047
						c-2.625-4.922-0.764-11.042,4.16-13.667c10.085-5.377,20.543-10.386,31.079-14.886c5.132-2.192,11.067,0.191,13.257,5.323
						c2.192,5.128-0.191,11.063-5.321,13.255c-10.004,4.273-19.933,9.031-29.509,14.138c-1.314,0.7-2.711,1.081-4.107,1.17
						C2296.91,542.622,2293.106,540.657,2291.183,537.047z M2586.723,509.882c-10.469-2.882-21.19-5.345-31.868-7.316
						c-5.487-1.016-9.113-6.285-8.099-11.771c1.014-5.489,6.281-9.085,11.771-8.097c11.244,2.078,22.535,4.671,33.559,7.707
						c5.378,1.481,8.538,7.041,7.057,12.422c-1.174,4.266-4.917,7.137-9.098,7.402
						C2588.956,510.298,2587.836,510.187,2586.723,509.882z M2372.181,502.545c-1.457-5.384,1.729-10.931,7.115-12.388
						c11.031-2.981,22.338-5.526,33.603-7.569c5.49-1.021,10.745,2.651,11.742,8.139c0.994,5.488-2.649,10.745-8.139,11.742
						c-10.706,1.941-21.452,4.358-31.935,7.194c-0.669,0.181-1.34,0.287-2.006,0.329
						C2377.868,510.289,2373.455,507.26,2372.181,502.545z M2502.067,496.594c-10.843-0.466-21.849-0.471-32.715-0.011
						c-5.575,0.239-10.284-4.088-10.521-9.664c-0.233-5.501,3.979-10.161,9.448-10.508c0.071-0.005,0.144-0.009,0.215-0.01
						c11.439-0.489,23.026-0.485,34.438,0.004c5.574,0.243,9.898,4.954,9.659,10.529c-0.223,5.205-4.353,9.323-9.44,9.646
						C2502.795,496.603,2502.432,496.606,2502.067,496.594z"/>
					<path style="fill:#7D97F4;" d="M2241.428,581.281c1.985-0.126,3.954-0.836,5.631-2.168c4.078-3.24,8.293-6.445,12.525-9.537
						c4.506-3.287,5.495-9.609,2.206-14.113c-3.287-4.508-9.611-5.502-14.115-2.204c-4.454,3.248-8.885,6.621-13.178,10.029
						c-4.368,3.468-5.1,9.825-1.632,14.191C2235.005,580.174,2238.239,581.483,2241.428,581.281z"/>
				</g>
				<g style="opacity:0.3;">
					<path style="fill:#7D97F4;" d="M2094.162,851.762c4.866-0.309,8.924-4.109,9.405-9.117c0.495-5.183,1.108-10.445,1.823-15.634
						c0.76-5.528-3.104-10.625-8.63-11.385c-5.55-0.763-10.625,3.106-11.385,8.631c-0.75,5.464-1.397,11.005-1.92,16.463
						c-0.531,5.553,3.54,10.486,9.093,11.019C2093.092,851.79,2093.632,851.795,2094.162,851.762z"/>
					<path style="fill:#7D97F4;" d="M2490.421,1283.006c-5.578,0.081-10.167-4.376-10.246-9.958
						c-0.079-5.578,4.373-10.154,9.956-10.244c10.62-0.152,21.399-0.761,32.16-1.808c5.524-0.556,10.492,3.525,11.032,9.078
						s-3.523,10.492-9.076,11.034c-4.662,0.454-9.314,0.828-13.952,1.123C2503.677,1282.651,2496.99,1282.913,2490.421,1283.006z
						 M2566.393,1264.57c-1.286-5.426,2.072-10.87,7.5-12.155c10.421-2.472,20.851-5.408,30.999-8.733
						c5.29-1.751,11.007,1.152,12.746,6.454c1.736,5.299-1.154,11.006-6.455,12.742c-10.684,3.501-21.664,6.594-32.631,9.192
						c-0.569,0.135-1.139,0.219-1.702,0.255C2572.029,1272.631,2567.546,1269.432,2566.393,1264.57z M2435.456,1280.026
						c-11.154-1.376-22.403-3.247-33.433-5.568c-5.46-1.148-8.955-6.505-7.807-11.967c1.148-5.458,6.504-8.945,11.965-7.805
						c10.475,2.206,21.155,3.983,31.747,5.288c5.537,0.685,9.473,5.725,8.791,11.264c-0.604,4.898-4.622,8.541-9.375,8.843
						C2436.725,1280.12,2436.093,1280.104,2435.456,1280.026z M2648.704,1237.537c-2.447-5.012-0.368-11.063,4.646-13.508
						c9.611-4.691,19.134-9.85,28.307-15.331c4.792-2.866,10.99-1.302,13.852,3.49c2.862,4.788,1.3,10.988-3.488,13.85
						c-9.661,5.773-19.691,11.206-29.809,16.146c-1.223,0.595-2.507,0.926-3.787,1.008
						C2654.462,1243.442,2650.553,1241.326,2648.704,1237.537z M2349.1,1259.464c-10.572-3.793-21.129-8.093-31.38-12.78
						c-5.074-2.319-7.306-8.309-4.989-13.383c2.319-5.078,8.313-7.309,13.387-4.99c9.738,4.45,19.765,8.535,29.805,12.136
						c5.252,1.885,7.981,7.67,6.096,12.922c-1.404,3.913-4.973,6.424-8.872,6.672
						C2351.813,1260.126,2350.437,1259.944,2349.1,1259.464z M2269.347,1220.461c-9.51-6.027-18.876-12.526-27.839-19.314
						c-4.447-3.371-5.321-9.705-1.952-14.154c3.375-4.453,9.709-5.325,14.152-1.95c8.517,6.45,17.417,12.626,26.454,18.355
						c4.713,2.986,6.111,9.228,3.125,13.941c-1.801,2.838-4.783,4.474-7.9,4.672
						C2273.33,1222.141,2271.218,1221.647,2269.347,1220.461z M2199.986,1165.002c-7.976-7.959-15.704-16.344-22.969-24.918
						c-3.607-4.259-3.079-10.63,1.176-14.237c4.262-3.612,10.632-3.079,14.237,1.176c6.903,8.149,14.246,16.113,21.827,23.677
						c3.949,3.941,3.956,10.338,0.015,14.285c-1.81,1.815-4.136,2.797-6.507,2.947
						C2204.973,1168.11,2202.122,1167.132,2199.986,1165.002z M2144.376,1095.735c-6.042-9.509-11.748-19.387-16.957-29.36
						c-2.583-4.944-0.669-11.048,4.277-13.631c4.936-2.579,11.046-0.666,13.629,4.279c4.946,9.468,10.363,18.846,16.104,27.88
						c2.992,4.709,1.601,10.949-3.108,13.941c-1.488,0.945-3.126,1.452-4.769,1.556
						C2149.994,1100.625,2146.425,1098.958,2144.376,1095.735z M2105.325,1015.899c-3.789-10.581-7.175-21.465-10.064-32.352
						c-1.432-5.393,1.78-10.927,7.172-12.356c5.376-1.425,10.923,1.778,12.354,7.171c2.744,10.343,5.96,20.679,9.558,30.731
						c1.881,5.25-0.854,11.034-6.105,12.913c-0.915,0.327-1.845,0.517-2.769,0.575
						C2111.093,1022.86,2106.878,1020.237,2105.325,1015.899z M2084.779,929.528c-1.028-8.218-1.814-16.57-2.338-24.82
						c-0.19-2.989-0.345-5.968-0.469-8.945c-0.231-5.572,4.024-10.385,9.672-10.51c5.573-0.235,10.281,4.096,10.514,9.672
						c0.118,2.827,0.265,5.665,0.445,8.504c0.498,7.845,1.244,15.78,2.221,23.594c0.693,5.535-3.235,10.584-8.77,11.275
						c-0.208,0.025-0.416,0.046-0.623,0.059C2090.145,938.692,2085.444,934.855,2084.779,929.528z"/>
					<path style="fill:#7D97F4;" d="M2731.766,1196.653c2.005-0.127,3.989-0.85,5.673-2.199c4.266-3.422,8.541-6.999,12.704-10.631
						c4.206-3.667,4.641-10.049,0.974-14.252c-3.669-4.203-10.045-4.645-14.252-0.974c-3.956,3.45-8.017,6.847-12.066,10.097
						c-4.351,3.487-5.051,9.845-1.56,14.198C2725.378,1195.56,2728.596,1196.854,2731.766,1196.653z"/>
				</g>
				<g>
					<path style="fill:#7D97F4;" d="M2750.848,1024.53c1.172-1.639,1.176-3.839,0.009-5.482l-33.279-46.845
						c10.227-24.81,16.571-51.429,18.385-78.985l50.494-27.349c1.771-0.96,2.738-2.937,2.409-4.924l-11.277-67.996
						c-0.329-1.988-1.884-3.547-3.868-3.883l-56.62-9.586c-10.612-25.495-25.209-48.643-42.897-68.823l16.376-55.079
						c0.573-1.931-0.141-4.013-1.779-5.185l-56.054-40.108c-1.637-1.172-3.84-1.176-5.482-0.009l-46.844,33.279
						c-24.81-10.228-51.429-16.572-78.986-18.386l-27.35-50.494c-0.959-1.772-2.936-2.739-4.923-2.409l-67.998,11.276
						c-1.987,0.33-3.546,1.884-3.882,3.87l-9.586,56.621c-25.496,10.612-48.643,25.209-68.823,42.898l-55.079-16.377
						c-1.93-0.574-4.013,0.139-5.185,1.779l-40.108,56.054c-1.172,1.638-1.175,3.839-0.01,5.48l33.28,46.846
						c-10.228,24.809-16.571,51.428-18.385,78.985l-50.494,27.35c-1.772,0.959-2.739,2.936-2.409,4.923l11.277,67.997
						c0.33,1.987,1.883,3.546,3.869,3.882l56.62,9.587c10.613,25.495,25.21,48.643,42.897,68.823l-16.376,55.079
						c-0.575,1.93,0.139,4.012,1.778,5.185l56.054,40.107c1.638,1.172,3.839,1.175,5.481,0.009l46.845-33.28
						c24.81,10.228,51.429,16.571,78.986,18.386l27.349,50.494c0.959,1.769,2.936,2.738,4.924,2.409l67.997-11.277
						c1.987-0.33,3.547-1.883,3.882-3.87l9.586-56.619c25.496-10.613,48.642-25.21,68.823-42.898l55.079,16.377
						c1.93,0.574,4.013-0.141,5.185-1.778L2750.848,1024.53z"/>
					<path style="fill:#91B3FA;" d="M2478.936,945.502c-38.07-3.166-66.469-36.711-63.304-74.785
						c1.531-18.443,10.156-35.185,24.281-47.141c14.121-11.955,32.057-17.7,50.502-16.162c38.071,3.166,66.469,36.711,63.305,74.785
						c-2.88,34.636-30.905,61.265-64.609,63.404C2485.769,945.816,2482.368,945.787,2478.936,945.502z M2450.354,835.914
						c-10.83,9.168-17.441,22.003-18.617,36.145c-2.425,29.187,19.348,54.912,48.537,57.337
						c29.197,2.437,54.912-19.348,57.339-48.539c2.425-29.187-19.348-54.912-48.537-57.337c-2.647-0.219-5.276-0.243-7.879-0.077
						C2469.894,824.161,2459.157,828.464,2450.354,835.914z"/>
					<path style="fill:#91B3FA;" d="M2494.035,1045.56c5.789-0.367,11.593-1.028,17.393-1.99l0,0
						c1.825-0.302,3.647-0.635,5.462-0.995c8.951-1.782,17.746-4.274,26.25-7.435c0.116-0.043,0.232-0.086,0.348-0.129
						c0.328-0.124,0.656-0.247,0.984-0.375c0.639-0.242,1.275-0.492,1.91-0.742c1.67-0.659,2.655-2.307,2.549-4.009
						c-0.026-0.413-0.118-0.831-0.278-1.236c-0.82-2.075-3.169-3.084-5.243-2.269c-10.678,4.224-21.882,7.324-33.303,9.215
						c-56.727,9.417-111.569-11.964-147.411-51.868c-19.938-22.193-33.995-50.119-39.226-81.671
						c-0.919-5.532-1.551-11.071-1.899-16.592c-2.354-37.159,8.056-73.692,30.015-104.38
						c25.221-35.252,62.663-58.572,105.422-65.662c88.313-14.636,171.999,45.27,186.637,133.539
						c0.903,5.442,1.527,10.911,1.872,16.38c1.5,23.703-2.202,47.471-10.926,69.585c-0.225,0.572-0.312,1.162-0.274,1.737
						c0.096,1.512,1.045,2.911,2.55,3.503c2.08,0.813,4.424-0.194,5.242-2.278c9.158-23.217,13.048-48.171,11.473-73.055
						c-0.362-5.742-1.017-11.48-1.963-17.193c-15.368-92.675-103.29-155.554-195.931-140.193
						c-44.892,7.444-84.194,31.926-110.672,68.933c-23.054,32.216-33.981,70.57-31.511,109.579
						c0.368,5.797,1.032,11.61,1.993,17.417c7.446,44.893,31.926,84.198,68.932,110.676
						C2416.652,1037.111,2455.018,1048.036,2494.035,1045.56z"/>
				</g>
			</g>
			<g>
				<g style="opacity:0.3;">
					<path style="fill:#7D97F4;" d="M3239.752,1150.049c2.694-0.171,5.063-2.086,5.687-4.854c1.167-5.166,2.194-10.439,3.05-15.67
						c0.556-3.399-1.747-6.605-5.15-7.164c-3.403-0.571-6.608,1.75-7.165,5.15c-0.816,4.985-1.794,10.01-2.907,14.941
						c-0.76,3.357,1.35,6.697,4.711,7.46C3238.577,1150.044,3239.171,1150.086,3239.752,1150.049z"/>
					<path style="fill:#7D97F4;" d="M3245.344,1102.472c-3.443-0.135-6.126-3.03-5.994-6.476c0.331-8.69,0.22-17.499-0.33-26.176
						c-0.116-1.83-0.255-3.665-0.411-5.505c-0.288-3.431,2.259-6.45,5.693-6.741c3.257-0.146,6.45,2.259,6.744,5.695
						c0.161,1.925,0.305,3.845,0.427,5.76c0.577,9.096,0.693,18.332,0.344,27.445c-0.122,3.225-2.676,5.786-5.832,5.987
						C3245.774,1102.475,3245.561,1102.476,3245.344,1102.472z M3234.021,1032.963c-2.16-10.32-4.977-20.6-8.377-30.549
						c-1.114-3.263,0.624-6.804,3.886-7.921c3.245-1.104,6.808,0.624,7.921,3.886c3.564,10.427,6.52,21.204,8.782,32.026
						c0.706,3.374-1.457,6.68-4.83,7.389c-0.295,0.061-0.595,0.098-0.89,0.117
						C3237.467,1038.105,3234.665,1036.036,3234.021,1032.963z M3213.547,973.127c-4.615-9.463-9.874-18.733-15.632-27.561
						c-1.88-2.884-1.067-6.752,1.818-8.632c2.896-1.887,6.751-1.076,8.635,1.815c6.039,9.256,11.553,18.986,16.395,28.905
						c1.509,3.097,0.226,6.836-2.871,8.345c-0.756,0.365-1.549,0.568-2.339,0.619
						C3217.105,976.772,3214.691,975.466,3213.547,973.127z M3178.996,920.148c-6.805-8.054-14.175-15.761-21.896-22.89
						c-2.532-2.342-2.688-6.289-0.349-8.818c2.334-2.523,6.282-2.688,8.815-0.352c8.1,7.484,15.823,15.559,22.962,24.007
						c2.224,2.631,1.891,6.571-0.74,8.795c-1.063,0.892-2.336,1.376-3.625,1.457
						C3182.257,922.469,3180.323,921.719,3178.996,920.148z M3132.558,877.21c-8.556-6.154-17.571-11.834-26.799-16.889
						c-3.02-1.652-4.128-5.446-2.473-8.469c1.655-3.023,5.446-4.137,8.47-2.473c9.671,5.296,19.121,11.253,28.09,17.698
						c2.795,2.014,3.433,5.912,1.423,8.707c-1.136,1.58-2.875,2.472-4.675,2.586C3135.205,878.458,3133.777,878.085,3132.558,877.21
						z M3077.105,846.846c-9.786-3.884-19.904-7.192-30.081-9.831c-3.333-0.863-5.338-4.27-4.472-7.604
						c0.866-3.333,4.259-5.332,7.607-4.476c10.67,2.766,21.288,6.238,31.552,10.312c3.2,1.274,4.768,4.899,3.497,8.099
						c-0.921,2.317-3.075,3.779-5.407,3.927C3078.909,847.331,3077.991,847.2,3077.105,846.846z M3015.935,830.973
						c-10.407-1.36-21.039-2.084-31.602-2.146c-3.445-0.025-6.221-2.835-6.198-6.28c0.019-3.444,2.826-6.168,6.279-6.204
						c11.073,0.073,22.22,0.83,33.135,2.256c3.417,0.448,5.825,3.58,5.38,6.997c-0.392,3.004-2.867,5.231-5.785,5.416
						C3016.748,831.037,3016.344,831.027,3015.935,830.973z M2913.972,831.609c-0.817-3.348,1.234-6.721,4.583-7.538
						c9.267-2.261,18.818-4.051,28.359-5.323c1.449-0.201,2.894-0.379,4.343-0.55c3.393-0.496,6.522,2.052,6.914,5.483
						c0.397,3.424-2.056,6.516-5.48,6.916c-1.358,0.154-2.718,0.326-4.1,0.517c-9.133,1.214-18.243,2.922-27.081,5.077
						c-0.364,0.09-0.73,0.144-1.088,0.167C2917.457,836.546,2914.698,834.591,2913.972,831.609z"/>
				</g>
				<g style="opacity:0.3;">
					<path style="fill:#7D97F4;" d="M2995.847,1354.99c-10.86,0.549-21.847,0.434-32.658-0.326
						c-3.435-0.246-6.026-3.226-5.783-6.666c0.242-3.441,3.249-5.994,6.666-5.783c10.309,0.731,20.789,0.835,31.15,0.312
						c3.441-0.176,6.372,2.477,6.545,5.916c0.171,3.414-2.434,6.327-5.833,6.542
						C2995.905,1354.986,2995.874,1354.988,2995.847,1354.99z M3021.122,1346.291c-0.584-3.394,1.695-6.622,5.09-7.204
						c10.215-1.759,20.426-4.153,30.351-7.121c3.284-0.972,6.778,0.888,7.763,4.196c0.988,3.301-0.888,6.772-4.19,7.763
						c-10.401,3.108-21.103,5.619-31.807,7.458c-0.226,0.039-0.447,0.065-0.673,0.08
						C3024.519,1351.662,3021.669,1349.468,3021.122,1346.291z M2930.787,1350.364c-10.676-2.094-21.316-4.856-31.621-8.213
						c-3.276-1.068-5.068-4.593-4-7.866c1.065-3.279,4.575-5.058,7.862-4.004c9.831,3.204,19.977,5.839,30.162,7.842
						c3.382,0.664,5.583,3.943,4.921,7.319c-0.559,2.844-2.964,4.852-5.725,5.028
						C2931.865,1350.504,2931.329,1350.471,2930.787,1350.364z M3082.605,1329.446c-1.384-3.154,0.054-6.835,3.209-8.219
						c9.491-4.162,18.819-8.948,27.726-14.232c2.963-1.751,6.792-0.773,8.548,2.18c1.757,2.965,0.782,6.794-2.183,8.551
						c-9.34,5.544-19.126,10.567-29.081,14.929c-0.689,0.3-1.402,0.467-2.11,0.512
						C3086.173,1333.328,3083.687,1331.911,3082.605,1329.446z M2868.796,1330.16c-9.837-4.589-19.495-9.831-28.712-15.577
						c-2.924-1.823-3.815-5.674-1.992-8.598c1.823-2.925,5.67-3.822,8.598-1.993c8.788,5.486,18,10.482,27.384,14.855
						c3.121,1.457,4.473,5.168,3.014,8.295c-0.996,2.139-3.059,3.448-5.264,3.588
						C2870.818,1330.794,2869.777,1330.616,2868.796,1330.16z M2813.453,1295.669c-8.468-6.826-16.597-14.228-24.16-21.996
						c-2.403-2.467-2.351-6.414,0.118-8.817c2.464-2.403,6.417-2.355,8.823,0.118c7.213,7.405,14.969,14.465,23.05,20.979
						c2.683,2.162,3.104,6.091,0.941,8.774c-1.143,1.416-2.778,2.204-4.466,2.311
						C2816.26,1297.133,2814.717,1296.687,2813.453,1295.669z M2767.958,1248.916c-6.594-8.659-12.711-17.801-18.183-27.161
						c-1.74-2.979-0.737-6.797,2.239-8.536c2.973-1.74,6.795-0.731,8.533,2.236c5.216,8.93,11.05,17.645,17.34,25.896
						c2.088,2.743,1.558,6.659-1.185,8.744c-1.016,0.778-2.193,1.189-3.378,1.264
						C2771.311,1251.486,2769.273,1250.639,2767.958,1248.916z"/>
					<path style="fill:#7D97F4;" d="M3143.771,1300.484c1.201-0.076,2.392-0.5,3.417-1.292c4.225-3.266,8.371-6.673,12.327-10.123
						c2.595-2.265,2.866-6.208,0.602-8.805c-2.268-2.585-6.204-2.86-8.805-0.601c-3.771,3.292-7.729,6.541-11.759,9.66
						c-2.726,2.108-3.225,6.029-1.117,8.752C3139.752,1299.774,3141.774,1300.611,3143.771,1300.484z"/>
				</g>
				<g>
					<path style="fill:#7D97F4;" d="M3160.328,1182.866c0.784-1.097,0.786-2.569,0.006-3.668l-22.269-31.347
						c6.843-16.602,11.088-34.414,12.302-52.853l33.789-18.301c1.185-0.642,1.832-1.965,1.612-3.295l-7.546-45.5
						c-0.219-1.33-1.26-2.374-2.588-2.598l-37.888-6.414c-7.101-17.061-16.868-32.55-28.705-46.053L3120,935.98
						c0.384-1.292-0.094-2.685-1.19-3.47l-37.509-26.838c-1.096-0.784-2.569-0.787-3.668-0.006l-31.345,22.268
						c-16.602-6.844-34.415-11.089-52.854-12.303l-18.301-33.789c-0.642-1.185-1.965-1.833-3.294-1.612l-45.501,7.546
						c-1.33,0.221-2.372,1.261-2.598,2.589l-6.415,37.888c-17.061,7.101-32.55,16.869-46.053,28.705l-36.857-10.959
						c-1.292-0.384-2.685,0.094-3.469,1.19l-26.839,37.51c-0.784,1.096-0.786,2.569-0.006,3.667l22.269,31.347
						c-6.844,16.601-11.089,34.413-12.303,52.853l-33.789,18.301c-1.185,0.641-1.833,1.964-1.612,3.294l7.545,45.501
						c0.221,1.329,1.26,2.373,2.589,2.598l37.887,6.414c7.101,17.061,16.869,32.55,28.705,46.053l-10.958,36.856
						c-0.385,1.292,0.094,2.685,1.19,3.47l37.509,26.838c1.096,0.784,2.569,0.786,3.668,0.007l31.346-22.269
						c16.602,6.844,34.414,11.088,52.854,12.303l18.301,33.789c0.642,1.185,1.965,1.832,3.295,1.612l45.5-7.546
						c1.329-0.221,2.373-1.26,2.598-2.589l6.415-37.887c17.061-7.101,32.549-16.87,46.053-28.705l36.857,10.958
						c1.292,0.384,2.686-0.094,3.469-1.19L3160.328,1182.866z"/>
					<path style="fill:#91B3FA;" d="M2978.312,1130.813c-12.566-1.04-23.971-6.916-32.115-16.539
						c-8.144-9.617-12.055-21.836-11.009-34.4c2.154-25.93,24.971-45.236,50.942-43.124c25.934,2.163,45.275,25.014,43.117,50.939
						c-1.043,12.563-6.916,23.968-16.537,32.112c-7.821,6.62-17.359,10.442-27.404,11.08
						C2982.999,1131.028,2980.659,1131.006,2978.312,1130.813z M2947.622,1080.904c-0.769,9.244,2.107,18.23,8.099,25.311
						c5.989,7.074,14.381,11.395,23.621,12.164l0,0c9.242,0.756,18.227-2.11,25.307-8.102c7.077-5.986,11.395-14.38,12.164-23.617
						c1.586-19.076-12.641-35.883-31.716-37.474c-1.722-0.141-3.423-0.155-5.098-0.049
						C2963.11,1050.208,2949.064,1063.554,2947.622,1080.904z"/>
					<path style="fill:#91B3FA;" d="M2988.825,1200.452c3.94-0.25,7.898-0.703,11.874-1.358c7.893-1.307,15.662-3.418,23.108-6.284
						c0.333-0.131,0.667-0.262,1.001-0.394c2.579-1.018,4.099-3.563,3.936-6.19c-0.041-0.638-0.182-1.283-0.429-1.908
						c-1.266-3.204-4.893-4.757-8.095-3.503c-6.927,2.741-14.18,4.746-21.557,5.966l-0.003,0c-0.405,0.068-0.813,0.13-1.215,0.193
						c-17.486,2.728-34.989,0.994-51.222-4.813c-8.811-3.153-17.25-7.513-25.107-13.028c-0.064-0.045-0.127-0.089-0.192-0.134
						c-0.195-0.141-0.39-0.275-0.582-0.415c-22.819-16.33-37.917-40.567-42.507-68.249c-0.597-3.582-1.004-7.165-1.231-10.74
						c-1.524-24.055,5.217-47.706,19.432-67.577c16.33-22.82,40.568-37.911,68.247-42.501c27.665-4.577,55.495,1.875,78.317,18.198
						c22.819,16.329,37.917,40.567,42.507,68.249c0.587,3.522,0.989,7.062,1.213,10.601c0.971,15.348-1.425,30.732-7.073,45.047
						c-0.347,0.883-0.482,1.795-0.422,2.682c0.148,2.335,1.613,4.495,3.936,5.41c3.209,1.255,6.828-0.305,8.095-3.518
						c6.318-16.018,9.001-33.234,7.918-50.399c-0.252-3.965-0.701-7.923-1.354-11.862c-5.137-30.974-22.027-58.09-47.561-76.359
						c-25.531-18.264-56.633-25.521-87.615-20.361c-30.971,5.134-58.087,22.02-76.354,47.557
						c-15.906,22.225-23.445,48.686-21.74,75.6c0.253,3.995,0.709,8.008,1.373,12.013
						C2875.47,1162.335,2929.424,1204.222,2988.825,1200.452z"/>
				</g>
			</g>
		</g>
		<g>
			<g>
				<g>
					
						<linearGradient id="SVGID_00000147200829480634734960000004868053718895432352_" gradientUnits="userSpaceOnUse" x1="941.2709" y1="1634.9778" x2="1807.4905" y2="1634.9778">
						<stop  offset="0" style="stop-color:#E1473D"/>
						<stop  offset="1" style="stop-color:#E9605A"/>
					</linearGradient>
					<path style="fill:url(#SVGID_00000147200829480634734960000004868053718895432352_);" d="M1807.49,1676.113
						c-201.261-190.884-541.797-356.001-840.525-356.417l-25.695,312.958c8.005-0.236,16.036-0.37,24.098-0.37
						c248.722,0,490.121,140.26,637.161,317.976c40.732-85.653,125.119-142,164.816-229.062L1807.49,1676.113z"/>
					
						<linearGradient id="SVGID_00000116219768177643609540000003895689862512473993_" gradientUnits="userSpaceOnUse" x1="599.5153" y1="1345.5039" x2="1125.5962" y2="1345.5039">
						<stop  offset="0" style="stop-color:#E1473D"/>
						<stop  offset="1" style="stop-color:#E9605A"/>
					</linearGradient>
					<polygon style="fill:url(#SVGID_00000116219768177643609540000003895689862512473993_);" points="1083.083,1202.309 
						599.515,1437.282 668.279,1488.699 1104.908,1488.699 1125.596,1215.286 					"/>
					<g>
						
							<linearGradient id="SVGID_00000175293355261788640130000012363906618048228995_" gradientUnits="userSpaceOnUse" x1="1363.5121" y1="-44.6167" x2="645.2845" y2="2089.5408">
							<stop  offset="0" style="stop-color:#FF928E"/>
							<stop  offset="1" style="stop-color:#FE7062"/>
						</linearGradient>
						<path style="fill:url(#SVGID_00000175293355261788640130000012363906618048228995_);" d="M1083.083,1202.309l-46.378,611.555
							l-475.15-351.417c-3.205-2.37-2.741-7.297,0.849-9.028L1083.083,1202.309z"/>
						
							<linearGradient id="SVGID_00000114047774794359459850000008268846209676636326_" gradientUnits="userSpaceOnUse" x1="1824.8088" y1="110.6298" x2="1106.5803" y2="2244.7905">
							<stop  offset="0" style="stop-color:#FF928E"/>
							<stop  offset="1" style="stop-color:#FE7062"/>
						</linearGradient>
						<path style="fill:url(#SVGID_00000114047774794359459850000008268846209676636326_);" d="M1573.504,2108.534
							c44.984-102.061,128.504-308.007,200.36-391.577c-204.505-217.297-530.011-378.056-851.912-378.505l-25.695,312.958
							c8.005-0.236,16.035-0.37,24.097-0.37C1182.735,1651.04,1527.744,1838.694,1573.504,2108.534z"/>
					</g>
				</g>
				<g>
					<path style="opacity:0.71;fill:#FFFFFF;" d="M1710.743,1738.104c-0.918,0-1.83-0.394-2.462-1.159
						c-56.599-68.583-142.116-136.388-247.305-196.076c-1.53-0.868-2.068-2.816-1.199-4.345c0.868-1.526,2.809-2.068,4.345-1.199
						c105.857,60.069,191.985,128.388,249.075,197.566c1.119,1.356,0.928,3.363-0.431,4.486
						C1712.176,1737.867,1711.454,1738.104,1710.743,1738.104z"/>
					<path style="opacity:0.71;fill:#FFFFFF;" d="M1428.068,1522.393c-0.501,0-1.012-0.117-1.486-0.371
						c-64.511-34.124-131.762-63.189-199.884-86.392c-1.663-0.568-2.555-2.378-1.987-4.045c0.568-1.663,2.381-2.555,4.045-1.987
						c68.439,23.31,136,52.508,200.806,86.793c1.556,0.822,2.151,2.749,1.326,4.305
						C1430.316,1521.778,1429.21,1522.393,1428.068,1522.393z"/>
					<path style="opacity:0.71;fill:#FFFFFF;" d="M1187.309,1422.785c-0.304,0-0.618-0.043-0.925-0.137
						c-41.102-12.465-81.041-22.184-118.706-28.881c-1.733-0.307-2.889-1.96-2.578-3.694c0.307-1.73,1.967-2.899,3.694-2.578
						c37.912,6.74,78.099,16.516,119.441,29.054c1.683,0.511,2.635,2.291,2.124,3.975
						C1189.941,1421.9,1188.679,1422.785,1187.309,1422.785z"/>
				</g>
			</g>
			<g>
				<g>
					
						<linearGradient id="SVGID_00000076594017264771656340000000153265370924097707_" gradientUnits="userSpaceOnUse" x1="1527.7444" y1="689.5599" x2="2138.5325" y2="689.5599">
						<stop  offset="0" style="stop-color:#E1473D"/>
						<stop  offset="1" style="stop-color:#E9605A"/>
					</linearGradient>
					<polygon style="fill:url(#SVGID_00000076594017264771656340000000153265370924097707_);" points="1829.903,442.72 
						1773.679,437.089 1786.973,464.532 1527.744,912.137 1992.363,912.137 2094.166,942.03 2138.532,917.261 					"/>
					
						<linearGradient id="SVGID_00000088833961694014021800000006767730515668615558_" gradientUnits="userSpaceOnUse" x1="1678.6155" y1="1286.6449" x2="1994.7947" y2="1286.6449">
						<stop  offset="0" style="stop-color:#E1473D"/>
						<stop  offset="1" style="stop-color:#E9605A"/>
					</linearGradient>
					<path style="fill:url(#SVGID_00000088833961694014021800000006767730515668615558_);" d="M1678.615,871.558v575.671
						c50.724,41.439,56.975,203.965,103.139,254.504c51.239-49.92,148.79-155.384,213.041-193.646V871.558H1678.615z"/>
					<g>
						
							<linearGradient id="SVGID_00000163044882045872305020000000073953786682391985_" gradientUnits="userSpaceOnUse" x1="1850.8937" y1="424.5316" x2="1724.3496" y2="1488.1932">
							<stop  offset="0" style="stop-color:#FF928E"/>
							<stop  offset="1" style="stop-color:#FE7062"/>
						</linearGradient>
						<path style="fill:url(#SVGID_00000163044882045872305020000000073953786682391985_);" d="M1490.861,942.571h603.305
							L1776.437,437.04c-0.645-1.027-2.151-1-2.759,0.05l-287.808,496.823C1483.644,937.758,1486.418,942.571,1490.861,942.571z"/>
						
							<linearGradient id="SVGID_00000181051944355796107160000001982661623338229632_" gradientUnits="userSpaceOnUse" x1="1876.231" y1="427.5463" x2="1749.687" y2="1491.208">
							<stop  offset="0" style="stop-color:#FF928E"/>
							<stop  offset="1" style="stop-color:#FE7062"/>
						</linearGradient>
						<path style="fill:url(#SVGID_00000181051944355796107160000001982661623338229632_);" d="M1621.128,901.992v679.839
							c57.487,41.439,101.136,100.752,147.299,151.291c51.239-49.92,111.393-152.286,173.952-191.778V901.992H1621.128z"/>
					</g>
				</g>
				<path style="opacity:0.71;fill:#FFFFFF;" d="M1624.511,930.54H1523.29c-2.478,0-4.706-1.276-5.958-3.413
					c-1.256-2.141-1.279-4.706-0.07-6.87l246.129-438.728c0.862-1.533,2.799-2.084,4.339-1.219c1.533,0.862,2.081,2.802,1.219,4.339
					l-246.126,438.725c-0.097,0.174-0.097,0.354,0.007,0.531c0.104,0.174,0.257,0.264,0.461,0.264h101.221
					c1.76,0,3.186,1.426,3.186,3.186C1627.698,929.114,1626.272,930.54,1624.511,930.54z"/>
			</g>
			<g>
				
					<linearGradient id="SVGID_00000145029486659022971030000002792163019148309174_" gradientUnits="userSpaceOnUse" x1="1624.4468" y1="2253.8438" x2="2733.8474" y2="2253.8438">
					<stop  offset="0" style="stop-color:#E1473D"/>
					<stop  offset="1" style="stop-color:#E9605A"/>
				</linearGradient>
				<path style="fill:url(#SVGID_00000145029486659022971030000002792163019148309174_);" d="M2708.153,1329.614
					c-463.638,0.634-860.62,260.533-1032.275,671.397h-0.005c0,0-0.004,0.113-0.006,0.121c-0.156,0.36-0.316,0.766-0.472,1.126
					l0.209,0.033c-90.08,197.877-35.264,821.489-28.167,1164.908c0,0,355.971,19.945,355.209,5.814
					c-14.032-260.325-35.517-842.71,1.346-1061.399c11.665-69.202,41.768-134.175,87.249-188.271
					c147.039-174.891,369.514-286.382,618.508-286.382c8.062,0,16.093-0.088,24.097,0.144L2708.153,1329.614z"/>
				
					<linearGradient id="SVGID_00000158005796643893724060000016938133853758517388_" gradientUnits="userSpaceOnUse" x1="2946.3979" y1="920.5297" x2="1557.8213" y2="2866.5886">
					<stop  offset="0" style="stop-color:#FF928E"/>
					<stop  offset="1" style="stop-color:#FE7062"/>
				</linearGradient>
				<path style="fill:url(#SVGID_00000158005796643893724060000016938133853758517388_);" d="M2642.529,1307.929
					c-0.324-3.954-3.653-7.012-7.62-6.984c-460.612,3.288-854.445,265.993-1025.23,683.959h-0.005c0,0-0.004,0.011-0.006,0.019
					c-0.156,0.367-0.316,0.728-0.472,1.095l0.209,0.008c-87.651,196.121-24.532,829.412-14.964,1176.351
					c0.188,6.826,5.676,12.294,12.503,12.461c62.313,1.518,342.399,8.127,342.199,4.269
					c-14.793-284.507-50.481-843.272-11.679-1079.738c11.78-71.791,42.375-139.287,88.82-195.282
					c147.048-177.282,368.973-290.211,617.267-290.211c5.284,0,10.554-0.016,15.812,0.039c4.449,0.047,7.963-3.768,7.599-8.203
					L2642.529,1307.929z"/>
				
					<linearGradient id="SVGID_00000172430717804344404410000016551185427099790507_" gradientUnits="userSpaceOnUse" x1="2527.2002" y1="1504.8997" x2="3022.1506" y2="1504.8997">
					<stop  offset="0" style="stop-color:#E1473D"/>
					<stop  offset="1" style="stop-color:#E9605A"/>
				</linearGradient>
				<polygon style="fill:url(#SVGID_00000172430717804344404410000016551185427099790507_);" points="3020.956,1485.572 
					3022.151,1484.689 3010.692,1421.403 3009.608,1420.88 3009.404,1419.719 3008.274,1420.237 2540.841,1194.807 
					2573.081,1619.946 2564.934,1623.684 2527.2,1776.353 2575.25,1814.992 2587.203,1806.158 2587.218,1806.362 3020.535,1485.884 
					3020.956,1485.573 				"/>
				
					<linearGradient id="SVGID_00000181769424827245035640000013090238310348973975_" gradientUnits="userSpaceOnUse" x1="2988.7773" y1="950.7681" x2="1600.2036" y2="2896.823">
					<stop  offset="0" style="stop-color:#FF928E"/>
					<stop  offset="1" style="stop-color:#FE7062"/>
				</linearGradient>
				<polygon style="fill:url(#SVGID_00000181769424827245035640000013090238310348973975_);" points="2480.823,1164.798 
					2527.2,1776.353 3009.404,1419.718 				"/>
			</g>
		</g>
		<g>
			
				<linearGradient id="SVGID_00000174588950147098097180000012786389119064107141_" gradientUnits="userSpaceOnUse" x1="305.0234" y1="1755.5575" x2="396.4501" y2="1984.8993" gradientTransform="matrix(1 0 0 1 1167.8792 0)">
				<stop  offset="0" style="stop-color:#09005D"/>
				<stop  offset="1" style="stop-color:#1A0F91"/>
			</linearGradient>
			<path style="fill:url(#SVGID_00000174588950147098097180000012786389119064107141_);" d="M1527.113,1878.925
				c0,0,30.822,14.992,36.489,32.214c4.547,13.819,38.628,15.6,41.995,42.777c1.738,14.032,12.122,25.269,26.098,27.411
				c34.808,5.335,88.451,23.41,97.034,83.845c6.551,46.129-16.965,63.621-41.644,69.675c-18.126,4.447-30.172,22.078-26.506,40.378
				c3.517,17.552-1.728,37.844-32.136,53.89c-68.143,35.957-136.196-85.185-136.196-85.185l-13.946-211.522L1527.113,1878.925z"/>
			
				<linearGradient id="SVGID_00000176044596869502731450000015262039585184156824_" gradientUnits="userSpaceOnUse" x1="-97.5941" y1="2069.6741" x2="71.3089" y2="2453.9666" gradientTransform="matrix(0.9776 -0.2106 0.2106 0.9776 917.4593 -113.5247)">
				<stop  offset="0" style="stop-color:#C4421B"/>
				<stop  offset="1" style="stop-color:#5C0E16"/>
			</linearGradient>
			<path style="fill:url(#SVGID_00000176044596869502731450000015262039585184156824_);" d="M1156.324,1828.78
				c0,0,136.058,215.206,297.847,256.773c0,0-31.525,89.79-55.858,100.066c0,0-199.046-166.081-250.198-326.259L1156.324,1828.78z"
				/>
			
				<linearGradient id="SVGID_00000024709376698200365030000002858408705104216736_" gradientUnits="userSpaceOnUse" x1="639.2401" y1="3223.8281" x2="716.7664" y2="3223.8281" gradientTransform="matrix(1 0 0 1 1167.8792 0)">
				<stop  offset="0" style="stop-color:#4F52FF"/>
				<stop  offset="1" style="stop-color:#4042E2"/>
			</linearGradient>
			<path style="fill:url(#SVGID_00000024709376698200365030000002858408705104216736_);" d="M1807.212,3205.235l4.41,36.25
				c0.837,6.877,6.251,12.315,13.134,13.101c11.621,1.328,30.27,2.688,48.516,0.76c8.009-0.847,13.208-8.957,10.769-16.632
				c-4.448-13.994-12.585-35.001-24.318-47.364h-40.213C1812.074,3191.351,1806.314,3197.854,1807.212,3205.235z"/>
			
				<linearGradient id="SVGID_00000023261780299334198960000017387978000865626518_" gradientUnits="userSpaceOnUse" x1="311.6515" y1="3529.5493" x2="423.2175" y2="2225.6211" gradientTransform="matrix(1 0 0 1 1167.8792 0)">
				<stop  offset="0" style="stop-color:#C4421B"/>
				<stop  offset="1" style="stop-color:#5C0E16"/>
			</linearGradient>
			<path style="fill:url(#SVGID_00000023261780299334198960000017387978000865626518_);" d="M1492.247,2780.581l-6.787,39.927
				c0,0,22.73,230.232,26.773,322.325c0.634,14.438-3.101,28.707-10.679,41.013l-39.523,64.181l100.447-59.272l2-12.258
				l-16.443-22.608l21.538-257.917c1.265-15.151-1.861-30.346-9.005-43.768l-20.777-39.032L1492.247,2780.581z"/>
			
				<linearGradient id="SVGID_00000047022133502033266050000014052672176383641774_" gradientUnits="userSpaceOnUse" x1="279.0596" y1="3209.6738" x2="404.5032" y2="3209.6738" gradientTransform="matrix(1 0 0 1 1167.8792 0)">
				<stop  offset="0" style="stop-color:#4F52FF"/>
				<stop  offset="1" style="stop-color:#4042E2"/>
			</linearGradient>
			<path style="fill:url(#SVGID_00000047022133502033266050000014052672176383641774_);" d="M1455.415,3257.324h32.055
				c6,0,11.658-2.755,15.318-7.51c9.993-12.985,30.697-38.317,40.597-38.979c13.327-0.89,11.622,46.488,11.622,46.488h7.47
				l9.462-58.873c2.381-14.813-4.986-29.487-18.287-36.428c0,0-3.047,22.53-19.565,32.495s-67.22,45.654-67.22,45.654
				s-6.21-0.885-13.028,0.347C1443.724,3242.347,1445.137,3257.324,1455.415,3257.324z"/>
			
				<linearGradient id="SVGID_00000155850434393207536010000007087517917187721646_" gradientUnits="userSpaceOnUse" x1="536.0734" y1="3548.9512" x2="647.6686" y2="2244.6802" gradientTransform="matrix(1 0 0 1 1167.8792 0)">
				<stop  offset="0" style="stop-color:#C4421B"/>
				<stop  offset="1" style="stop-color:#5C0E16"/>
			</linearGradient>
			<path style="fill:url(#SVGID_00000155850434393207536010000007087517917187721646_);" d="M1629.826,2799.544
				c0,0,133.157,252.586,154.324,310.255c21.167,57.669,28.582,105.779,28.866,110.334c0.444,7.119,9.298,13.947,33.704,13.947
				c12.596,0,18.764-5.049,21.785-9.936c2.577-4.169,2.71-9.387,0.539-13.781c-7.703-15.588-32.146-65.404-41.199-87.999
				c-10.809-26.977-34.058-149.23-46.809-191.735c-12.751-42.506-27.164-88.614-82.691-131.085
				C1698.343,2799.544,1660.226,2762.21,1629.826,2799.544z"/>
			
				<linearGradient id="SVGID_00000156573408292445349530000000651986194149671358_" gradientUnits="userSpaceOnUse" x1="314.4076" y1="2214.6184" x2="370.193" y2="2732.187" gradientTransform="matrix(1 0 0 1 1167.8792 0)">
				<stop  offset="0" style="stop-color:#4F52FF"/>
				<stop  offset="1" style="stop-color:#4042E2"/>
			</linearGradient>
			<path style="fill:url(#SVGID_00000156573408292445349530000000651986194149671358_);" d="M1545.709,2385.67
				c-34.348-145.548,52.666-227.869,52.666-227.869c-54.905-52.702-154.941-76.684-154.941-76.684s-95.456,69.787-84.132,124.41
				c6.637,32.015,67.097,191.764,67.097,191.764S1482.305,2423.75,1545.709,2385.67z"/>
			
				<linearGradient id="SVGID_00000051345179004301231710000003978720784256232083_" gradientUnits="userSpaceOnUse" x1="621.7015" y1="2240.0273" x2="342.7714" y2="2686.3152" gradientTransform="matrix(1 0 0 1 1167.8792 0)">
				<stop  offset="0" style="stop-color:#09005D"/>
				<stop  offset="1" style="stop-color:#1A0F91"/>
			</linearGradient>
			<path style="fill:url(#SVGID_00000051345179004301231710000003978720784256232083_);" d="M1621.864,2457.726
				c-13.979-42.112-76.155-72.057-76.155-72.057c-63.404,38.08-119.31,11.622-119.31,11.622s-12.538,47.923-3.884,92.459
				c8.653,44.536,62.945,330.757,62.945,330.757c85.545,17.333,217.112-17.439,217.112-17.439
				C1648.082,2706.327,1635.843,2499.838,1621.864,2457.726z"/>
			
				<linearGradient id="SVGID_00000116193140116228828870000006226870341264327093_" gradientUnits="userSpaceOnUse" x1="299.4165" y1="2244.2666" x2="320.3738" y2="2090.9482" gradientTransform="matrix(1 0 0 1 1167.8792 0)">
				<stop  offset="0" style="stop-color:#C4421B"/>
				<stop  offset="1" style="stop-color:#5C0E16"/>
			</linearGradient>
			<path style="fill:url(#SVGID_00000116193140116228828870000006226870341264327093_);" d="M1505.839,1984.934l27.926,125.438
				c2.674,11.049-7.399,9.241-18.569,7.135c-18.294-3.449-41.872-10.552-49.754-24.787c-0.802-1.449-1.203-3.086-1.429-4.727
				l-11.997-86.982c-0.952-6.901,2.779-13.599,9.147-16.422l23.152-10.266C1493.228,1970.37,1503.545,1975.457,1505.839,1984.934z"
				/>
			
				<linearGradient id="SVGID_00000073001743754148203820000009432262683200605836_" gradientUnits="userSpaceOnUse" x1="385.7917" y1="2318.9797" x2="525.0093" y2="2318.9797" gradientTransform="matrix(1 0 0 1 1167.8792 0)">
				<stop  offset="0" style="stop-color:#C4421B"/>
				<stop  offset="1" style="stop-color:#5C0E16"/>
			</linearGradient>
			<path style="fill:url(#SVGID_00000073001743754148203820000009432262683200605836_);" d="M1598.375,2157.801
				c0,0,194.91,139.448,24.927,285.979c0,0-6.482,7.333-19.232,11.144c-6.437,1.924-25.48,16.331-35.134,23.843
				c-3.104,2.415-7.588,1.593-9.675-1.74c-1.635-2.612-1.827-5.876-0.51-8.662l24.13-51.025c6.701-6.254,16.958-6.698,24.174-1.046
				c4.603,3.605,11.347,2.095,13.924-3.153c13.14-26.763,37.952-105.474-63.603-194.416c-3.818-3.344-4.783-8.874-2.44-13.375
				C1562.071,2191.643,1578.39,2164.423,1598.375,2157.801z"/>
			<g>
				
					<linearGradient id="SVGID_00000055698784999581154470000000456315813678857403_" gradientUnits="userSpaceOnUse" x1="62.3452" y1="2213.2542" x2="245.2065" y2="1887.8225" gradientTransform="matrix(0.9809 -0.1943 0.1943 0.9809 938.7892 -99.2406)">
					<stop  offset="0" style="stop-color:#C4421B"/>
					<stop  offset="1" style="stop-color:#5C0E16"/>
				</linearGradient>
				<path style="fill:url(#SVGID_00000055698784999581154470000000456315813678857403_);" d="M1452.35,1870.584
					c0,0-29.73,20.125-42.506,71.376s7.986,69.635,29.267,68.508c21.281-1.127,52.137-7.708,78.872-44.476
					C1544.718,1929.225,1491.309,1845.993,1452.35,1870.584z"/>
				
					<linearGradient id="SVGID_00000136382359623174195360000011362178831949986479_" gradientUnits="userSpaceOnUse" x1="101.6712" y1="1929.855" x2="193.1016" y2="2159.2063" gradientTransform="matrix(0.9809 -0.1943 0.1943 0.9809 938.7892 -99.2406)">
					<stop  offset="0" style="stop-color:#09005D"/>
					<stop  offset="1" style="stop-color:#1A0F91"/>
				</linearGradient>
				<path style="fill:url(#SVGID_00000136382359623174195360000011362178831949986479_);" d="M1491.022,1945.322
					c0,0,10.893-73.438-50.079-62.205l-12.329,12.835c0,0-29.844-33.61,3.183-59.016c33.027-25.406,78.858-18.9,104.214,27.353
					c25.356,46.252,34.559,78.753,13.306,107.494c-21.253,28.741-37.239,4.091-37.239,4.091s9.747-24.875,1.66-35.549
					c-8.087-10.674-18.521,6.208-18.521,6.208L1491.022,1945.322z"/>
				
					<linearGradient id="SVGID_00000055665783294842316500000015228181492049776518_" gradientUnits="userSpaceOnUse" x1="101.2687" y1="2235.1282" x2="284.1301" y2="1909.6964" gradientTransform="matrix(0.9809 -0.1943 0.1943 0.9809 938.7892 -99.2406)">
					<stop  offset="0" style="stop-color:#C4421B"/>
					<stop  offset="1" style="stop-color:#5C0E16"/>
				</linearGradient>
				<path style="fill:url(#SVGID_00000055665783294842316500000015228181492049776518_);" d="M1499.355,1951.61
					c0,0,5.378-37.783,24.675-26.982c19.297,10.801-6.955,35.295-17.48,43.629L1499.355,1951.61z"/>
			</g>
			<g>
				
					<linearGradient id="SVGID_00000014595349099573363570000014362564667380005278_" gradientUnits="userSpaceOnUse" x1="-130.9725" y1="2084.3447" x2="37.9305" y2="2468.6372" gradientTransform="matrix(0.9776 -0.2106 0.2106 0.9776 917.4593 -113.5247)">
					<stop  offset="0" style="stop-color:#C4421B"/>
					<stop  offset="1" style="stop-color:#5C0E16"/>
				</linearGradient>
				<path style="fill:url(#SVGID_00000014595349099573363570000014362564667380005278_);" d="M1157.259,1873.083
					c-0.412,4.439,16.096,7.507,21.35-11.418c-1.444-8.216-4.009-44.197-10.309-49.787c-33.553-29.771-93.385-63.262-93.385-63.262
					c-6.692,10.216,2.084,16.945,2.084,16.945l29.867,20.156c-3.116,10.319-7.662,19.442-8.176,31.223
					c-0.39,8.922,2.906,17.656,8.828,24.423c5.944,6.792,13.946,15.561,21.159,22.218
					C1142.329,1876.183,1157.259,1873.083,1157.259,1873.083z"/>
				
					<linearGradient id="SVGID_00000154419407039192181780000001587849231539609022_" gradientUnits="userSpaceOnUse" x1="1156.0751" y1="1565.7102" x2="1128.7144" y2="1941.9242">
					<stop  offset="0" style="stop-color:#C4421B"/>
					<stop  offset="1" style="stop-color:#5C0E16"/>
				</linearGradient>
				<path style="fill:url(#SVGID_00000154419407039192181780000001587849231539609022_);" d="M1141.036,1858.416l4.565-1.878
					c-0.606-1.477-14.939-36.305-21.871-43.55c-2.634-2.749-3.906-5.103-3.789-7c0.059-1.027,0.567-2.041,1.532-3.075l24.166,12.924
					l10.675,16.713l4.16-2.661l-11.366-17.802l-28.307-15.135l-1.278,1.04c-2.863,2.341-4.343,4.855-4.513,7.691
					c-0.209,3.378,1.474,6.883,5.145,10.72C1125.379,1821.86,1136.999,1848.579,1141.036,1858.416z"/>
			</g>
		</g>
		<g>
			
				<linearGradient id="SVGID_00000170962708465478377170000003574068595839849630_" gradientUnits="userSpaceOnUse" x1="2255.592" y1="3134.9609" x2="1767.1621" y2="3666.2363">
				<stop  offset="0" style="stop-color:#09005D"/>
				<stop  offset="1" style="stop-color:#1A0F91"/>
			</linearGradient>
			<path style="fill:url(#SVGID_00000170962708465478377170000003574068595839849630_);" d="M2101.199,3174.538
				c0,0-5.058,28.636-7.538,56.983c-0.969,11.078,7.572,20.697,18.683,21.16c37.749,1.572,118.496,4.629,147.471,3.336
				c4.356-0.194,7.204-4.653,5.592-8.704c-1.351-3.395-3.957-6.14-7.276-7.665l-133.38-61.301L2101.199,3174.538z"/>
			
				<linearGradient id="SVGID_00000170264237445893594310000012590370039576983991_" gradientUnits="userSpaceOnUse" x1="2365.3835" y1="2607.6238" x2="2135.0955" y2="3136.6011">
				<stop  offset="0" style="stop-color:#FF928E"/>
				<stop  offset="1" style="stop-color:#FEB3B1"/>
			</linearGradient>
			<path style="fill:url(#SVGID_00000170264237445893594310000012590370039576983991_);" d="M2097.055,3157.712l4.064,34.252
				c0,0,23.365,10.876,39.321-1.371l-9.676-38.171L2097.055,3157.712z"/>
			
				<linearGradient id="SVGID_00000052810846585307488870000005307964199060278455_" gradientUnits="userSpaceOnUse" x1="2134.071" y1="3182.7725" x2="2022.3472" y2="2448.5837">
				<stop  offset="0" style="stop-color:#09005D"/>
				<stop  offset="1" style="stop-color:#1A0F91"/>
			</linearGradient>
			<path style="fill:url(#SVGID_00000052810846585307488870000005307964199060278455_);" d="M2100.109,2513.757
				c-1.755,8.944-9.422,446.367,37.335,642.391c0.763,3.198-0.858,6.496-3.903,7.739c-7.172,2.93-21.231,7.173-38.08,7.74
				c-5.218,0.175-9.896-3.216-11.368-8.225c-13.365-45.48-77.41-273.351-85.765-491.028c-9.336-243.234,0-8.282,0-8.282
				l5.475-150.352L2100.109,2513.757z"/>
			
				<linearGradient id="SVGID_00000124855132990216096150000015486725448930349990_" gradientUnits="userSpaceOnUse" x1="2146.0205" y1="3034.2258" x2="1657.5897" y2="3565.5022">
				<stop  offset="0" style="stop-color:#09005D"/>
				<stop  offset="1" style="stop-color:#1A0F91"/>
			</linearGradient>
			<path style="fill:url(#SVGID_00000124855132990216096150000015486725448930349990_);" d="M1947.768,3189.477
				c0,0-8.052,14.457-15.847,52.871c-1.408,6.938,3.44,13.577,10.484,14.27c12.465,1.225,31.654,2.802,47.025,2.696
				c7.086-0.049,12.616-6.219,11.762-13.253c-1.703-14.022-7.007-37.027-23.393-54.957L1947.768,3189.477z"/>
			
				<linearGradient id="SVGID_00000059289165646262464200000003672626581044431010_" gradientUnits="userSpaceOnUse" x1="2230.7615" y1="2549.0159" x2="2000.472" y2="3077.9961">
				<stop  offset="0" style="stop-color:#FF928E"/>
				<stop  offset="1" style="stop-color:#FEB3B1"/>
			</linearGradient>
			<path style="fill:url(#SVGID_00000059289165646262464200000003672626581044431010_);" d="M1940.697,3145.421l9.496,51.799
				c0,0,9.389,6.984,27.963,1.921l-4.532-55.732L1940.697,3145.421z"/>
			
				<linearGradient id="SVGID_00000115499416077586630420000007689041652705978515_" gradientUnits="userSpaceOnUse" x1="2075.1975" y1="3191.731" x2="1963.4735" y2="2457.541">
				<stop  offset="0" style="stop-color:#09005D"/>
				<stop  offset="1" style="stop-color:#1A0F91"/>
			</linearGradient>
			<path style="fill:url(#SVGID_00000115499416077586630420000007689041652705978515_);" d="M1915.043,2527.18
				c-38.241,230.787,8.295,570.411,23.99,636.883c0.961,4.07,4.245,7.188,8.37,7.872c7.006,1.161,18.54,2.109,29.911-1.194
				c3.918-1.137,6.67-4.671,6.83-8.748c2.105-53.741-1.684-383.658,33.948-514.043c1.806-6.608,5.841-12.37,11.424-16.339
				l69.159-49.167l5.302-79.473L1915.043,2527.18z"/>
			<g>
				
					<linearGradient id="SVGID_00000063591015645493190630000016273215602105610926_" gradientUnits="userSpaceOnUse" x1="2179.1687" y1="2508.1326" x2="2015.0031" y2="2113.678">
					<stop  offset="0" style="stop-color:#4F52FF"/>
					<stop  offset="1" style="stop-color:#4042E2"/>
				</linearGradient>
				<path style="fill:url(#SVGID_00000063591015645493190630000016273215602105610926_);" d="M2158.717,2089.882
					c-114.602-1.893-241.051,30.091-241.051,30.091c-34.161,199.324-5.973,429.23-5.973,429.23
					c88.721,23.266,188.804-14.225,188.804-14.225c14.746-83.313,83.547-317.782,83.547-317.782
					c55.994-6.949,102.121-23.105,140.106-44.463c-28.975-33.586-42.635-76.323-48.567-101.585
					C2235.064,2083.74,2194.063,2090.466,2158.717,2089.882z"/>
				
					<linearGradient id="SVGID_00000059274682595367459760000004168013054450366639_" gradientUnits="userSpaceOnUse" x1="2192.7119" y1="2287.4968" x2="2582.5876" y2="1769.3733">
					<stop  offset="0" style="stop-color:#FF928E"/>
					<stop  offset="1" style="stop-color:#FEB3B1"/>
				</linearGradient>
				<path style="fill:url(#SVGID_00000059274682595367459760000004168013054450366639_);" d="M2497.228,1921.081
					c-11.258-13.598-25.506-7.165-25.506-7.165c-16.865,71.238-105.292,128.999-196.139,157.233
					c5.933,25.262,19.593,67.999,48.567,101.585C2474.919,2087.962,2497.228,1921.081,2497.228,1921.081z"/>
			</g>
			<g>
				
					<linearGradient id="SVGID_00000088836116161038759350000007313178776010939544_" gradientUnits="userSpaceOnUse" x1="2540.6929" y1="1822.7162" x2="2465.4504" y2="1939.0002">
					<stop  offset="0" style="stop-color:#FF928E"/>
					<stop  offset="1" style="stop-color:#FEB3B1"/>
				</linearGradient>
				<path style="fill:url(#SVGID_00000088836116161038759350000007313178776010939544_);" d="M2494.495,1924.538
					c1.178,3.745-12.463,9.447-20.495-5.869c-0.281-7.34-4.745-38.787-0.359-44.768c23.361-31.848,68.653-71.773,68.653-71.773
					c7.655,7.553,1.348,14.973,1.348,14.973l-21.971,22.888c4.596,8.305,10.201,15.315,12.829,25.36
					c1.99,7.607,0.773,15.737-3.07,22.66c-3.857,6.948-9.119,15.98-14.093,23.049
					C2507.922,1924.438,2494.495,1924.538,2494.495,1924.538z"/>
				
					<linearGradient id="SVGID_00000016037860327298748560000010103650344340841636_" gradientUnits="userSpaceOnUse" x1="2695.8948" y1="1723.707" x2="2524.8882" y2="1867.3527">
					<stop  offset="0" style="stop-color:#FF928E"/>
					<stop  offset="1" style="stop-color:#FEB3B1"/>
				</linearGradient>
				<path style="fill:url(#SVGID_00000016037860327298748560000010103650344340841636_);" d="M2512.061,1854.841l-20.022,16.973
					l-6.286,16.899l17.852,19.804c0,0,6.002-33.531,10.464-40.788C2518.529,1860.472,2516.216,1856.963,2512.061,1854.841z"/>
			</g>
			
				<linearGradient id="SVGID_00000127004788568266606290000010167695485994486191_" gradientUnits="userSpaceOnUse" x1="2011.5898" y1="2577.8767" x2="1847.4237" y2="2183.4211">
				<stop  offset="0" style="stop-color:#4F52FF"/>
				<stop  offset="1" style="stop-color:#4042E2"/>
			</linearGradient>
			<path style="fill:url(#SVGID_00000127004788568266606290000010167695485994486191_);" d="M1961.622,2230.941l-43.956-110.968
				c0,0-107.044,72.732-124.648,164.948c20.226,1.49,57.03,6.75,93.055,24.94C1893.99,2266.318,1961.622,2230.941,1961.622,2230.941
				z"/>
			
				<linearGradient id="SVGID_00000016786545424434951110000011249596242572986007_" gradientUnits="userSpaceOnUse" x1="2107.1677" y1="2097.8423" x2="1961.2426" y2="2287.0889">
				<stop  offset="0" style="stop-color:#FF928E"/>
				<stop  offset="1" style="stop-color:#FEB3B1"/>
			</linearGradient>
			<path style="fill:url(#SVGID_00000016786545424434951110000011249596242572986007_);" d="M2055.166,2335.357
				c0,0-120.183,67.922-160.734,9.925c-8.42-12.043-10.433-24.011-8.359-35.422c-36.025-18.19-72.829-23.451-93.055-24.94
				c-5.308,27.8-2.502,57.367,13.834,87.25c71.033,129.939,264.22-7.181,264.22-7.181L2055.166,2335.357z"/>
			<g>
				
					<linearGradient id="SVGID_00000115497858454438427340000016767648052282668460_" gradientUnits="userSpaceOnUse" x1="2175.6746" y1="2239.3613" x2="2329.908" y2="2882.0027">
					<stop  offset="0" style="stop-color:#09005D"/>
					<stop  offset="1" style="stop-color:#1A0F91"/>
				</linearGradient>
				<path style="fill:url(#SVGID_00000115497858454438427340000016767648052282668460_);" d="M2040.726,2421.286l65.592-229.061
					c0.745-2.6,2.963-4.497,5.649-4.81c11.884-1.385,46.319-5.279,86.078-8.641c47.892-4.052,103.507-7.334,136.741-4.541
					c4.724,0.397,7.58,5.394,5.479,9.645c-18.899,38.235-96.638,193.766-135.567,244.716c-1.29,1.688-3.285,2.675-5.408,2.655
					l-152.184-1.416C2042.679,2429.792,2039.507,2425.543,2040.726,2421.286z"/>
				<path style="fill:#7D97F4;" d="M2204.85,2158.914l47.555-7.924c2.533-0.422,4.607,1.998,3.802,4.436l-4.708,14.266
					c-0.41,1.241-1.493,2.14-2.789,2.313l-45.762,6.113c-2.367,0.316-4.319-1.835-3.775-4.161l2.914-12.454
					C2202.401,2160.162,2203.49,2159.141,2204.85,2158.914z"/>
				<path style="fill:#7D97F4;" d="M2169.241,2199.174l3.917-20.406c0.393-2.047,2.083-3.593,4.156-3.804l96.05-9.747
					c3.233-0.328,5.822,2.635,5.063,5.795l-6.107,25.428c-0.488,2.035-2.259,3.504-4.349,3.609l-93.861,4.725
					C2171.056,2204.928,2168.665,2202.178,2169.241,2199.174z"/>
				
					<linearGradient id="SVGID_00000129196508113310397180000013282223696558733190_" gradientUnits="userSpaceOnUse" x1="2093.7766" y1="2315.9934" x2="2735.019" y2="1592.6722">
					<stop  offset="0" style="stop-color:#FF928E"/>
					<stop  offset="1" style="stop-color:#FEB3B1"/>
				</linearGradient>
				<path style="fill:url(#SVGID_00000129196508113310397180000013282223696558733190_);" d="M2056.573,2365.945
					c0,0-9.137-37.571-5.451-50.9c3.686-13.33,10.827-30.467,34.629-26.659c23.803,3.809,51.88,13.836,51.88,13.836
					s-1.418,17.362-19.509,11.76l11.218,8.68c0,0-1.603,13.902-16.884,6.475l10.434,11.512c0,0-6.563,11.417-17.804,4.094
					C2093.844,2337.419,2088.455,2370.469,2056.573,2365.945z"/>
			</g>
			
				<linearGradient id="SVGID_00000021836559189015740500000016254711572135361161_" gradientUnits="userSpaceOnUse" x1="2088.6516" y1="2015.1489" x2="1970.087" y2="2243.1577">
				<stop  offset="0" style="stop-color:#FF928E"/>
				<stop  offset="1" style="stop-color:#FEB3B1"/>
			</linearGradient>
			<path style="fill:url(#SVGID_00000021836559189015740500000016254711572135361161_);" d="M2042.635,1996.844l-36.465,105.452
				c-0.604,1.747,0.114,3.681,1.732,4.576c9.94,5.496,45.751,21.381,88.907-5.98c4.496-2.851,7.556-7.499,8.239-12.779
				l11.808-91.269H2042.635z"/>
			<g>
				
					<linearGradient id="SVGID_00000042695747423523450860000007005728057077518504_" gradientUnits="userSpaceOnUse" x1="2828.8201" y1="11765.9717" x2="2739.8965" y2="11615.4854" gradientTransform="matrix(0.746 -0.6659 0.6659 0.746 5126.3354 -803.1727)">
					<stop  offset="0" style="stop-color:#FF928E"/>
					<stop  offset="1" style="stop-color:#FEB3B1"/>
				</linearGradient>
				<path style="fill:url(#SVGID_00000042695747423523450860000007005728057077518504_);" d="M2121.976,1899.192
					c0,0,40.041,75.374,34.909,105.821c-5.132,30.447-54.758,28.261-98.093,3.533l-30.281-81.387L2121.976,1899.192z"/>
				
					<linearGradient id="SVGID_00000101810173103801904490000008454781065387235205_" gradientUnits="userSpaceOnUse" x1="-4120.4116" y1="-143.7948" x2="-4085.7461" y2="53.9265" gradientTransform="matrix(0.746 -0.6659 0.6659 0.746 5126.3354 -803.1727)">
					<stop  offset="0" style="stop-color:#09005D"/>
					<stop  offset="1" style="stop-color:#1A0F91"/>
				</linearGradient>
				<path style="fill:url(#SVGID_00000101810173103801904490000008454781065387235205_);" d="M2060.708,1968.577
					c1.761-0.78,2.411-2.935,1.356-4.547c-3.208-4.901-9.222-14.899-11.14-23.652c0,0-7.198-4.61,18.321-10.718
					c25.52-6.108,63.575-15.589,71.574-37.311c7.799-21.178-12.692-74.437-45.384-32.001c-1.244,1.615-3.68,1.65-4.922,0.034
					c-5.359-6.975-19.449-21.453-39.011-12.676c-18.306,8.214-20.368,21.628-20.116,28.389c0.074,1.989-1.704,3.535-3.66,3.162
					c-9.255-1.765-31.465-3.281-41.832,19.503c-8.539,18.766-2.989,29.39,2.065,34.586c1.638,1.683,0.92,4.455-1.325,5.142
					c-6.083,1.862-13.937,7.02-13.151,21.271c1.087,19.701,23.114,17.966,29.385,17.068c1.028-0.147,2.063,0.206,2.759,0.975
					c5.377,5.951,29.605,31.219,55.827,34.264c2.271,0.264,4.03-1.978,3.287-4.139l-11.348-32.987
					c-0.527-1.532,0.206-3.212,1.688-3.869L2060.708,1968.577z"/>
				
					<linearGradient id="SVGID_00000041997862795891711920000008482764708112995488_" gradientUnits="userSpaceOnUse" x1="2801.1152" y1="11782.3438" x2="2712.1919" y2="11631.8584" gradientTransform="matrix(0.746 -0.6659 0.6659 0.746 5126.3354 -803.1727)">
					<stop  offset="0" style="stop-color:#FF928E"/>
					<stop  offset="1" style="stop-color:#FEB3B1"/>
				</linearGradient>
				<path style="fill:url(#SVGID_00000041997862795891711920000008482764708112995488_);" d="M2065.27,1973.259
					c0,0-28.51-19.561-30.594-3.089c-2.083,16.473,25.673,23.86,39.422,17.719L2065.27,1973.259z"/>
			</g>
		</g>
	</g>
</g>
</svg>
